<?xml version="1.0" encoding="utf-8"?>
<!-- Generator: Adobe Illustrator 25.2.3, SVG Export Plug-In . SVG Version: 6.00 Build 0)  -->
<svg version="1.1" id="Layer_1" xmlns="http://www.w3.org/2000/svg" xmlns:xlink="http://www.w3.org/1999/xlink" x="0px" y="0px"
	 viewBox="0 0 42 42" style="enable-background:new 0 0 42 42;" xml:space="preserve">
<style type="text/css">
	.st0{fill-rule:evenodd;clip-rule:evenodd;fill:#FFFFFF;}
	.st1{fill:#FE0050;}
</style>
<path class="st0" d="M27.3,0.4c-11.5,0-1.2,0-12.6,0C3.2,0.4,0.4,3.2,0.4,14.8c0,6.5,0,1.2,0,12.6s2.8,14.2,14.3,14.2s1.2,0,12.6,0
	s14.2-2.8,14.2-14.3s0-1.2,0-12.6C41.6,3.2,38.8,0.4,27.3,0.4z"/>
<path class="st1" d="M34.7,21.1c0,8.5-6.2,14.6-13.7,14.6S7.3,29.6,7.3,21.9c0.1-7.4,6.2-13.6,13.8-13.5c2.3,0,4.5,0.6,6.5,1.7
	s3.5,2.6,4.8,4.5C33.9,16.8,34.6,19.3,34.7,21.1z M32.5,22c0-6.4-5.2-11.5-11.5-11.5S9.5,15.7,9.5,21.9c0,6.3,5.1,11.5,11.5,11.5
	C27.3,33.5,32.5,28.4,32.5,22z"/>
<path class="st1" d="M16.4,27.5c0-3.6,0-7.3,0-10.9c0.1,0,0.1,0,0.2,0c2.2,0,4.5,0,6.7,0c1.1,0,1.9,0.5,2.5,1.4
	c0.4,0.7,0.5,1.4,0.4,2.1c-0.1,0.6-0.5,1.1-1.1,1.4H25l0,0c0.1,0.1,0.2,0.1,0.4,0.2c0.5,0.3,1,0.6,1.3,1.1c0.2,0.4,0.3,0.9,0.3,1.4
	c0,0.7-0.2,1.3-0.6,1.8c-0.4,0.6-0.9,1-1.6,1.2c-0.4,0.1-0.8,0.2-1.3,0.2c-2.3,0-4.5,0-6.8,0C16.5,27.5,16.4,27.5,16.4,27.5z
	 M20.6,24.4c0.5,0,0.9,0,1.3,0s0.7-0.5,0.6-0.9c-0.1-0.3-0.4-0.5-0.7-0.5c-0.4,0-0.7,0-1.1,0c-0.1,0-0.2,0-0.1,0.2v0.1
	C20.6,23.6,20.6,24,20.6,24.4z M20.6,20.7c0.1,0,0.1,0,0.2,0c0.3,0,0.6,0,0.9,0s0.5-0.2,0.6-0.4c0.1-0.4-0.1-0.7-0.5-0.8
	c-0.3,0-0.7,0-1,0c0,0,0,0-0.1,0C20.6,20,20.6,20.4,20.6,20.7z"/>
</svg>
