<?xml version="1.0" encoding="utf-8"?>
<!-- Generator: Adobe Illustrator 25.2.3, SVG Export Plug-In . SVG Version: 6.00 Build 0)  -->
<svg version="1.1" id="Layer_1" xmlns="http://www.w3.org/2000/svg" xmlns:xlink="http://www.w3.org/1999/xlink" x="0px" y="0px"
	 viewBox="0 0 42 42" style="enable-background:new 0 0 42 42;" xml:space="preserve">
<style type="text/css">
	.st0{fill-rule:evenodd;clip-rule:evenodd;fill:#10BF40;}
	.st1{fill-rule:evenodd;clip-rule:evenodd;fill:#FFFFFF;}
</style>
<path class="st0" d="M27.4,0c-11.8,0-1.2,0-12.9,0C2.9,0,0,2.9,0,14.6c0,6.6,0,1.2,0,12.9C0,39.1,2.9,42,14.6,42
	c11.8,0,1.2,0,12.9,0S42,39.1,42,27.4s0-1.2,0-12.9C42,2.9,39.1,0,27.4,0z"/>
<path class="st1" d="M23.2,26.9c-0.1-0.4,0.2-2.4,0.2-2.4s0.5,0.1,1,0.1c0.5,0.1,1.2,0.1,1.2,0.1s-0.4,1.5-0.2,1.8
	c0.6,0.8,3.6,2.7,4.3,3.5c0.3,0.3,0.7,0.7,1.1,1c0.3,0.3,1.3,0.3,1.6,0.6c0.2,0.2,0.4,0.7,0.3,0.8c-0.1,0.1-1.6,0.1-1.9,0.1
	c-0.3,0-0.6-0.3-0.6-0.3s-0.2,0.2-0.5,0.1C29.2,32,29.3,31.5,29,31c-0.2-0.2-2.7-1.8-4.4-2.8C23.2,27.5,23.3,27.5,23.2,26.9z
	 M13,21.7c-0.3-0.3-1.4,0.7-1.8,0.6c-0.3-0.1,0-0.9-0.3-0.8c-0.4,0.1-0.5,1-0.8,1C9.6,22.8,9.2,22,9.2,21c0-1,0.4-2.1,1.6-2.8
	c1.2-0.7,3-0.9,4.4-0.4c1.3-0.7,3.1-2.8,7-2.9c3.9-0.1,5.4,1.8,6.2,1.4c0.8-0.5,1.1-1.5,0.9-2.3c-0.3-1.5-1-2.3-1.6-3.6
	c-0.3-0.8-0.4-1.9,0.1-2.7c0.2-0.4,0.7-0.8,1.3-0.9c0.7-0.1,0.9,0.5,1.4,0.7c0.5,0.2,1.5,0.3,1.6,0.6c0.1,0.4-1.2,0.7-1.5,0.6
	c-0.7-0.1-1.1,0.4-1.1,1.2c0,1,0.3,1.3,1.2,2.8c0.9,1.4,0.9,3.8-0.3,5.4c-0.4,0.5-0.8,0.9-1,1.4c-0.2,0.4,0-0.4,0,1.3
	c0,1.8-0.9,2.6-2.1,3c-1.6,0.5-2.9,0.3-4.3,0.2c-1.9-0.2-3.4-0.2-4.2,0c-0.7,0.2-2.8,1.4-3.1,1.9c-0.1,0.3-0.9,3.4-1,4.1
	c-0.1,0.3,0,0.8-0.2,1.1c-0.1,0.3-1.9,1.4-2.5,1.6c-0.3,0.1-0.8,0.2-0.9,0.1c-0.4-0.4-0.4-0.6,0.7-1.3c-0.4-0.8,0.7-1,1.1-1.4
	c0.4-0.4,1-5.2,1.2-5.8s1.1-0.8,1.5-1.4c-0.2-0.2-0.4-0.1-1,0.1c-0.5,0.2-1.6,0.5-1.9,0.3C12.8,23.1,13.3,22,13,21.7z"/>
</svg>
