<?xml version="1.0" encoding="utf-8"?>
<!-- Generator: Adobe Illustrator 25.2.3, SVG Export Plug-In . SVG Version: 6.00 Build 0)  -->
<svg version="1.1" id="Layer_1" xmlns="http://www.w3.org/2000/svg" xmlns:xlink="http://www.w3.org/1999/xlink" x="0px" y="0px"
	 viewBox="0 0 42 42" style="enable-background:new 0 0 42 42;" xml:space="preserve">
<style type="text/css">
	.st0{fill-rule:evenodd;clip-rule:evenodd;fill:#5E67FC;}
	.st1{fill:#FF7200;}
	.st2{fill:#FFFFFF;}
</style>
<path class="st0" d="M27.4,0c-11.8,0-1.2,0-12.9,0C2.9,0,0,2.9,0,14.6c0,6.6,0,1.2,0,12.9C0,39.1,2.9,42,14.6,42
	c11.8,0,1.2,0,12.9,0S42,39.1,42,27.4s0-1.2,0-12.9C42,2.9,39.1,0,27.4,0z"/>
<path class="st1" d="M21.7,27.5c-0.8-0.9-1.4-1.6-2.1-2.4c-2-2.2-3.9-4.4-5.9-6.6c-1.3-1.5-2.4-3.2-2.5-5.3
	c-0.3-3.2,1.3-6.6,5.2-7.3c1.3-0.3,2.7,0,3.9,0.6c0.7,0.4,1.3,0.5,2,0c0.4-0.3,1-0.4,1.5-0.6c2.9-1.1,5.9,0.5,7.1,2.9
	c0.2,0.4,0.4,0.8,0.6,1.2c1.2,2.8,0.9,5.4-1,7.8c-0.8,1-1.7,2-2.6,2.9c-1.7,2-3.5,3.9-5.2,5.9C22.3,26.9,22,27.2,21.7,27.5z
	 M17.8,8.9c-1.4,0-2.5,0.6-3.2,1.8c-0.8,1.4-0.7,2.7,0.1,4.1c1.4,2.4,3.5,4,6.1,5c0.3,0.1,0.8,0.1,1.1,0c3.1-0.9,5.4-2.8,6.8-5.7
	c0.9-1.8-0.2-4-1.8-4.7c-1.4-0.6-2.9-0.5-4.1,0.6c-0.5,0.4-1,0.7-1.5,0.5c-0.4-0.1-0.8-0.3-1.1-0.6C19.5,9.2,18.7,8.9,17.8,8.9z"/>
<path class="st2" d="M22,30.4c0.5-0.7,1-1.3,1.4-2c0.7-0.9,1.1-0.9,1.6,0.1c0.8,1.2,0.8,2.6,0.5,4c-0.5,2.8-3.8,3.8-5.6,3
	c-0.5-0.2-0.9-0.5-1.3-0.8c-1.7-1.8-1.4-5,0.7-6.3c0.4-0.3,0.6-0.3,1,0.2C21,29,21.4,29.6,22,30.4z"/>
</svg>
