<?xml version="1.0" encoding="utf-8"?>
<!-- Generator: Adobe Illustrator 25.2.3, SVG Export Plug-In . SVG Version: 6.00 Build 0)  -->
<svg version="1.1" id="Layer_1" xmlns="http://www.w3.org/2000/svg" xmlns:xlink="http://www.w3.org/1999/xlink" x="0px" y="0px"
	 viewBox="0 0 42 42" style="enable-background:new 0 0 42 42;" xml:space="preserve">
<style type="text/css">
	.st0{fill-rule:evenodd;clip-rule:evenodd;}
	.st1{fill:#FFFFFF;}
</style>
<path class="st0" d="M27.4,0c-11.8,0-1.2,0-12.9,0C2.9,0,0,2.9,0,14.6c0,6.6,0,1.2,0,12.9C0,39.1,2.9,42,14.6,42
	c11.8,0,1.2,0,12.9,0S42,39.1,42,27.4s0-1.2,0-12.9C42,2.9,39.1,0,27.4,0z"/>
<path class="st1" d="M22.4,10.7c-0.5,0.6-0.8,1.6-0.8,3v1.8c0,0.6,0.2,1.2,0.6,1.6l1.7,2.2c0.1,0,0.1,0,0.2,0c0.9,0,1.7,0.8,1.7,1.7
	c0,0.9-0.8,1.7-1.7,1.7c-0.9,0-1.7-0.8-1.7-1.7c0-0.2,0-0.5,0.1-0.6l-1.7-2.2c-0.6-0.8-0.9-1.7-0.9-2.7v-2c0-1.6,0.3-3,1-4
	c0.9-1,2-1.6,3.3-1.6c2.2,0,4,1.4,4.8,3.2c2,0.6,3.4,2.4,3.4,4.6c0,0.5,0,0.9-0.1,1.4c1.4,0.7,2.3,2.2,2.3,3.8s-0.9,3.1-2.3,3.8
	c0.1,0.5,0.1,0.9,0.1,1.4c0,2.2-1.4,4-3.4,4.6c-0.8,1.8-2.6,3.2-4.8,3.2c-0.6,0-1.1-0.1-1.6-0.2l0.6-1.6c0.3,0.1,0.7,0.1,1,0.1
	c1.6,0,2.9-1,3.3-2.4l0.1-0.5l0.6-0.1c1.4-0.2,2.5-1.5,2.5-3c0-0.8-0.1-1-0.2-1.3c-0.2-0.3-0.7-0.5-1-0.5c-0.5,0-0.9,0.3-1.1,0.7
	l-1.3,1.2c0.1,0.2,0.1,0.5,0.1,0.6c0,0.9-0.8,1.7-1.7,1.7c-0.9,0-1.7-0.8-1.7-1.7c0-0.9,0.8-1.7,1.7-1.7c0.1,0,0.2,0,0.2,0l1-1.3
	c0.6-0.7,1.5-1.3,2.4-1.3c0.7-0.1,1.5,0.1,2.2,0.6c0.9-0.5,1.5-1.3,1.5-2.4s-0.6-2-1.5-2.3c-0.7,0.5-1.4,0.7-2.2,0.6
	c-0.9-0.1-1.7-0.6-2.4-1.3l-1-1.3c-0.1,0-0.1,0-0.2,0c-0.9,0-1.7-0.8-1.7-1.7c0-0.9,0.8-1.7,1.7-1.7c0.9,0,1.7,0.8,1.7,1.7
	c0,0.2,0,0.5-0.1,0.6l1,1.3c0.3,0.3,0.8,0.6,1.1,0.7c0.5,0,0.8-0.1,1-0.5c0.2-0.2,0.2-0.6,0.2-1.3c0-1.5-1-2.8-2.5-3h-0.3l-0.1-0.5
	c-0.5-1.4-1.7-2.4-3.3-2.4C23.4,9.7,22.9,10.1,22.4,10.7z"/>
<path class="st1" d="M7,20.9c0,1.6,0.9,3.1,2.3,3.8c-0.1,0.5-0.1,0.9-0.1,1.4c0,2.2,1.4,4,3.4,4.6c0.8,1.8,2.6,3.2,4.8,3.2
	c1.4,0,2.4-0.6,3.2-1.6c0.7-1,1-2.4,1-4v-1.8c0-1-0.3-2-0.9-2.7l-1.7-2.2c0.1-0.2,0.1-0.5,0.1-0.6c0-0.9-0.8-1.7-1.7-1.7
	c-0.9,0-1.7,0.8-1.7,1.7c0,0.9,0.8,1.7,1.7,1.7c0.1,0,0.2,0,0.2,0l1.7,2.2c0.3,0.5,0.6,1,0.6,1.6v1.8c0,1.4-0.3,2.4-0.8,3
	c-0.5,0.5-1,0.8-1.8,0.8c-1.6,0-2.9-1-3.3-2.4l-0.1-0.6l-0.6-0.1c-1.4-0.2-2.5-1.5-2.5-3c0-0.8,0.1-1,0.2-1.3c0.2-0.3,0.7-0.5,1-0.5
	c0.5,0,0.9,0.3,1.1,0.7l1.3,1.4c-0.1,0.2-0.1,0.5-0.1,0.6c0,0.9,0.7,1.7,1.7,1.7s1.7-0.8,1.7-1.7c0-0.9-0.8-1.7-1.7-1.7
	c-0.1,0-0.2,0-0.2,0l-1-1.3c-0.6-0.7-1.5-1.3-2.4-1.3c-0.7-0.1-1.5,0.1-2.2,0.6c-0.9-0.3-1.5-1.3-1.5-2.4c0-1.2,0.6-2,1.5-2.3
	c0.7,0.5,1.4,0.7,2.2,0.6c0.9-0.1,1.7-0.6,2.4-1.3l1-1.3c0.1,0,0.1,0,0.2,0c0.9,0,1.7-0.8,1.7-1.7c0-0.9-0.8-1.7-1.7-1.7
	c-0.9,0-1.7,0.8-1.7,1.7c0,0.2,0,0.5,0.1,0.6l-1,1.3c-0.3,0.5-0.8,0.7-1.1,0.7c-0.5,0-0.8-0.1-1-0.5c-0.3-0.2-0.3-0.5-0.3-1.2
	c0-1.5,1-2.8,2.5-3l0.5-0.1l0.1-0.5c0.5-1.5,1.7-2.5,3.3-2.5c0.3,0,0.7,0.1,1,0.1L19,8.2c-0.5-0.1-1-0.2-1.6-0.2
	c-2.2,0-4,1.4-4.8,3.2c-2,0.6-3.4,2.4-3.4,4.6c0,0.5,0,0.9,0.1,1.4C7.9,17.9,7,19.3,7,20.9z"/>
</svg>
