<?xml version="1.0" encoding="utf-8"?>
<!-- Generator: Adobe Illustrator 25.2.3, SVG Export Plug-In . SVG Version: 6.00 Build 0)  -->
<svg version="1.1" id="Layer_1" xmlns="http://www.w3.org/2000/svg" xmlns:xlink="http://www.w3.org/1999/xlink" x="0px" y="0px"
	 viewBox="0 0 42 42" style="enable-background:new 0 0 42 42;" xml:space="preserve">
<style type="text/css">
	.st0{fill-rule:evenodd;clip-rule:evenodd;}
	.st1{fill-rule:evenodd;clip-rule:evenodd;fill:url(#SVGID_1_);}
</style>
<path class="st0" d="M27.4,0c-11.8,0-1.2,0-12.9,0C2.9,0,0,2.9,0,14.6c0,6.6,0,1.2,0,12.9C0,39.1,2.9,42,14.6,42
	c11.8,0,1.2,0,12.9,0S42,39.1,42,27.4s0-1.2,0-12.9C42,2.9,39.1,0,27.4,0z"/>
<radialGradient id="SVGID_1_" cx="-250.723" cy="437.1274" r="1" gradientTransform="matrix(13.8469 12.6095 15.5399 -17.0649 -3302.2666 10641.9121)" gradientUnits="userSpaceOnUse">
	<stop  offset="0" style="stop-color:#24FF00"/>
	<stop  offset="1" style="stop-color:#44FF25"/>
</radialGradient>
<path class="st1" d="M21.2,17.4l1.5-2.9l0,0c0.3-0.6,0.4-1.2,0.4-1.9c-0.1-2.1-2-3.7-4.2-3.5c-2.2,0.1-3.8,1.9-3.7,4
	c0,0.7,0.3,1.4,0.7,1.9l1.8,2.6c0.3,0.6,1.1,1,1.8,1C20.3,18.4,20.9,18,21.2,17.4z M24.2,21.4L28,22l0,0c0.7,0.1,1.5,0,2.3-0.3
	c2.3-0.9,3.4-3.4,2.5-5.5c-0.9-2.2-3.5-3.2-5.8-2.4c-0.8,0.3-1.4,0.8-1.9,1.4L22.7,18c0,0-0.1,0.1-0.1,0.1l0,0l0,0
	c-0.4,0.6-0.5,1.3-0.3,2C22.7,20.9,23.4,21.4,24.2,21.4z M21.4,28.5L21,25.2c-0.1-0.7,0.1-1.4,0.7-1.9c0.6-0.5,1.5-0.5,2.1-0.2
	l3,1.2c0.7,0.2,1.3,0.7,1.7,1.3c1.3,1.7,1,4.1-0.8,5.4c-1.8,1.3-4.3,0.9-5.6-0.7C21.8,29.7,21.5,29.1,21.4,28.5L21.4,28.5z
	 M16.1,23.3L12.7,25l0,0c-0.7,0.3-1.2,0.8-1.7,1.5c-1.3,2-0.7,4.6,1.4,5.8s4.8,0.6,6.1-1.3c0.4-0.7,0.7-1.4,0.7-2.2l0.1-3.5
	c0.1-0.8-0.3-1.6-1-2C17.6,22.9,16.8,22.9,16.1,23.3z M14.5,17.1l2,1.9c0.4,0.4,0.6,1,0.5,1.5c-0.2,0.6-0.7,1-1.3,1.1l-2.6,0.7l0,0
	c-0.5,0.1-1.1,0.2-1.7,0c-1.8-0.4-2.8-2.1-2.4-3.8c0.4-1.7,2.2-2.7,4-2.3C13.6,16.5,14.1,16.8,14.5,17.1L14.5,17.1z"/>
</svg>
