<?xml version="1.0" encoding="utf-8"?>
<!-- Generator: Adobe Illustrator 25.2.3, SVG Export Plug-In . SVG Version: 6.00 Build 0)  -->
<svg version="1.1" id="Layer_1" xmlns="http://www.w3.org/2000/svg" xmlns:xlink="http://www.w3.org/1999/xlink" x="0px" y="0px"
	 viewBox="0 0 42 42" style="enable-background:new 0 0 42 42;" xml:space="preserve">
<style type="text/css">
	.st0{fill-rule:evenodd;clip-rule:evenodd;fill:#FFFFFF;}
	.st1{fill:#FC2C38;}
</style>
<path class="st0" d="M27.3,0.4c-11.5,0-1.2,0-12.6,0C3.2,0.4,0.4,3.2,0.4,14.8c0,6.5,0,1.2,0,12.6s2.8,14.2,14.3,14.2s1.2,0,12.6,0
	s14.2-2.8,14.2-14.3s0-1.2,0-12.6C41.6,3.2,38.8,0.4,27.3,0.4z"/>
<path class="st1" d="M33,21c0,4.1-2,6.1-4.4,6.1c-1.4,0-2.6-0.8-3.3-1.8C24.2,26.3,22.6,27,21,27c-3.3,0-6-2.7-6-6s2.7-6,6-6
	s6,2.7,6,6v2c0,1,0.7,1.7,1.6,1.7c1,0,1.9-0.9,1.9-3.7c0.1-5.3-4.3-9.6-9.5-9.6s-9.6,4.3-9.6,9.6c0,5.2,4.3,9.6,9.6,9.6
	c3.1,0,5.2-1.5,5.2-1.5l1.6,1.8c0,0-2.7,2.1-6.8,2.1c-6.6,0-12-5.4-12-12S14.4,9,21,9S33,14.4,33,21z M21,24.6c2,0,3.7-1.6,3.7-3.7
	S23,17.2,21,17.2s-3.7,1.6-3.7,3.7S19,24.6,21,24.6z"/>
</svg>
