<?xml version="1.0" encoding="utf-8"?>
<!-- Generator: Adobe Illustrator 25.2.3, SVG Export Plug-In . SVG Version: 6.00 Build 0)  -->
<svg version="1.1" id="Layer_1" xmlns="http://www.w3.org/2000/svg" xmlns:xlink="http://www.w3.org/1999/xlink" x="0px" y="0px"
	 viewBox="0 0 42 42" style="enable-background:new 0 0 42 42;" xml:space="preserve">
<style type="text/css">
	.st0{fill-rule:evenodd;clip-rule:evenodd;fill:#FFFFFF;}
	.st1{fill:#E5133A;}
</style>
<path class="st0" d="M27.3,0.4c-11.5,0-1.2,0-12.6,0C3.2,0.4,0.4,3.2,0.4,14.8c0,6.5,0,1.2,0,12.6s2.8,14.2,14.3,14.2s1.2,0,12.6,0
	s14.2-2.8,14.2-14.3s0-1.2,0-12.6C41.6,3.2,38.8,0.4,27.3,0.4z"/>
<path class="st1" d="M26.8,14c0.1,0,0.2,0,0.3,0c0.4,0.1,0.7,0.4,0.9,0.8c0,0.1,0.1,0.2,0.1,0.3c0.3,0.8,0.7,1.5,1,2.3
	c0.2,0.4,0.4,0.9,0.6,1.3c0.1,0,0.1-0.1,0.2-0.1c1.2-0.7,2.4-1.5,3.7-2.2c0.6-0.4,1.2-0.2,1.5,0.4c0.9,1.5,1.1,3,0.8,4.7
	c-0.7,3.5-4.2,5.8-7.6,5c-2.1-0.4-3.7-1.6-4.6-3.6c-0.1-0.3-0.3-0.4-0.7-0.3c-0.6,0.2-1.1,0.5-1.5,0.9c0,0-0.1,0.1-0.1,0.2
	c0,0.3-0.1,0.6-0.1,0.9c-0.1,1.1-0.2,2.3-0.5,3.4c-0.1,0.5-0.3,1.1-0.6,1.5C20,29.7,19.7,30,19.3,30c-0.1,0-0.2,0-0.3,0.1
	c0,0-0.1,0-0.1,0c-0.2-0.1-0.4-0.1-0.6-0.2c-0.6-0.3-1.2-0.7-1.6-1.3c-0.5-0.7-0.7-1.4-0.6-2.2c0.1-0.6,0.3-1.2,0.7-1.7
	c0.6-0.8,1.3-1.4,2.1-1.9c0.2-0.2,0.4-0.3,0.4-0.6c0-0.1,0-0.1,0-0.2c0-0.1,0-0.1,0-0.2c-0.2,0.3-0.4,0.6-0.7,0.8
	c-0.6,0.5-1.3,0.5-1.9-0.1c-0.3-0.3-0.6-0.7-0.8-1.1c0,0,0-0.1-0.1-0.1c0,0-0.1,0.1-0.1,0.1c-0.3,0.5-0.7,0.8-1.2,1
	c-0.9,0.4-1.9-0.1-1.9-1.1c0-0.5,0-1,0-1.5c0-0.1,0-0.3-0.1-0.3c-0.1,0-0.3,0-0.3,0c-0.1,0.1-0.2,0.2-0.3,0.3
	c-0.1,0.3-0.2,0.6-0.3,0.9c-0.2,0.4-0.3,0.8-0.5,1.2c-0.2,0.3-0.6,0.5-1,0.4c-0.4-0.1-0.7-0.3-0.8-0.7c0-0.4,0-0.7,0-1.1
	c0-0.3,0-0.6,0-1c0-0.2-0.2-0.3-0.3-0.2c-0.1,0.1-0.2,0.2-0.2,0.3c-0.2,0.4-0.4,0.8-0.5,1.2c-0.2,0.4-0.3,0.8-0.5,1.2
	c-0.2,0.4-0.6,0.5-1,0.5c-0.4-0.1-0.6-0.4-0.6-0.8c0-0.6,0-1.2-0.1-1.9c0-0.1,0-0.3,0-0.4c0-0.5,0-1,0-1.5c0-0.1,0-0.1,0-0.2
	c0-0.4,0.1-0.7,0.3-1c0.2-0.3,0.4-0.5,0.7-0.6c0.5-0.1,0.9,0,0.9,0.7c0,0.3,0,0.6,0,0.9c0,0.1,0.1,0.2,0.1,0.3
	c0.1,0,0.2-0.1,0.3-0.1c0.1,0,0.1-0.1,0.1-0.2c0.1-0.2,0.2-0.3,0.3-0.5c0.2-0.4,0.4-0.8,0.7-1.1c0.2-0.3,0.6-0.4,1-0.3
	c0.4,0.1,0.6,0.4,0.6,0.8c0,0.4,0,0.8,0,1.2c0,0.1,0,0.3,0.1,0.3c0.2,0.1,0.2-0.1,0.3-0.2c0.4-0.4,0.7-0.9,1.1-1.4
	c0.2-0.2,0.3-0.4,0.6-0.5c0.4-0.2,0.8-0.2,1.1,0c0.3,0.2,0.4,0.5,0.4,0.9c0,0.4-0.1,0.9-0.1,1.3c0,0.6-0.1,1.2-0.1,1.8
	c0,0.3,0.1,0.3,0.3,0.2c0,0,0.1,0,0.1-0.1c0.4-0.3,0.6-0.6,0.9-1c0-0.1,0-0.1,0-0.2c0-0.5,0-0.9,0-1.4c0-0.5,0.1-0.9,0.4-1.3
	c0.2-0.4,0.6-0.6,1.1-0.6c0.5,0,0.9,0.3,1,0.8c0.1,0.4,0,0.8-0.2,1.1c-0.1,0.1-0.2,0.3-0.2,0.4c0,0.3-0.1,0.7-0.1,1
	c0,0.3,0.1,0.6,0.2,0.8c0.1,0.3,0.4,0.4,0.7,0.2c0.1-0.1,0.2-0.2,0.3-0.3c0.2-0.3,0.4-0.6,0.5-1c0.2-0.6,0.3-1.2,0.4-1.8
	c0.1-0.3,0.2-0.6,0.3-0.9c0.2-0.3,0.5-0.5,0.9-0.5c0.4,0.1,0.7,0.2,0.9,0.7c0.1,0.3,0.1,0.7,0,1c-0.4,1-0.5,2.1-0.5,3.2
	c0,0.1,0,0.1,0,0.2c0.1,0,0.1-0.1,0.2-0.1c0.7-0.3,1.3-0.5,2.1-0.6c0.6-0.1,1.1,0.1,1.3,0.9c0.6,2.4,2.9,3.8,5.3,3.3
	c2.4-0.5,4.1-2.8,3.5-5.4c-0.1-0.3-0.2-0.4-0.5-0.2c-0.8,0.5-1.6,1-2.4,1.4c-0.4,0.2-0.7,0.4-1.1,0.7c-0.6,0.4-1.2,0.2-1.5-0.5
	c-0.6-1.3-1.2-2.6-1.8-3.9c-0.1-0.3-0.3-0.3-0.5-0.1c-0.3,0.4-0.6,0.8-0.8,1.1c-0.3,0.5-0.8,0.7-1.3,0.4c-0.5-0.3-0.7-0.8-0.4-1.3
	c0.3-0.7,0.9-1.2,1.4-1.7C25.5,14.6,26.1,14.2,26.8,14z M19.2,24.9c-0.4,0.2-0.8,0.8-0.9,1.2c-0.2,0.4,0,0.9,0.3,1.2
	c0.2,0.1,0.3,0.1,0.3-0.1c0.1-0.3,0.1-0.7,0.2-1C19.1,25.8,19.2,25.4,19.2,24.9z"/>
</svg>
