<?xml version="1.0" encoding="utf-8"?>
<!-- Generator: Adobe Illustrator 25.2.3, SVG Export Plug-In . SVG Version: 6.00 Build 0)  -->
<svg version="1.1" id="Layer_1" xmlns="http://www.w3.org/2000/svg" xmlns:xlink="http://www.w3.org/1999/xlink" x="0px" y="0px"
	 viewBox="0 0 42 42" style="enable-background:new 0 0 42 42;" xml:space="preserve">
<style type="text/css">
	.st0{fill-rule:evenodd;clip-rule:evenodd;fill:#FFFFFF;}
	.st1{fill-rule:evenodd;clip-rule:evenodd;fill:#FC2B4A;}
</style>
<path class="st0" d="M27.3,0.4c-11.5,0-1.2,0-12.6,0C3.2,0.4,0.4,3.2,0.4,14.8c0,6.5,0,1.2,0,12.6s2.8,14.2,14.3,14.2s1.2,0,12.6,0
	s14.2-2.8,14.2-14.3s0-1.2,0-12.6C41.6,3.2,38.8,0.4,27.3,0.4z"/>
<path class="st1" d="M21,15c0,3.3-2.7,6-6,6c-3.3,0-6-2.7-6-6s2.7-6,6-6C18.3,9,21,11.7,21,15z"/>
<path class="st1" d="M33,15c0,3.3-2.7,6-6,6s-6-2.7-6-6c0-3.3,2.7-6,6-6S33,11.7,33,15z"/>
<path class="st1" d="M21,27c0,3.3-2.7,6-6,6c-3.3,0-6-2.7-6-6c0-3.3,2.7-6,6-6C18.3,21,21,23.7,21,27z"/>
<path class="st1" d="M33,27c0,3.3-2.7,6-6,6s-6-2.7-6-6c0-3.3,2.7-6,6-6S33,23.7,33,27z"/>
</svg>
