<?xml version="1.0" encoding="utf-8"?>
<!-- Generator: Adobe Illustrator 25.2.3, SVG Export Plug-In . SVG Version: 6.00 Build 0)  -->
<svg version="1.1" id="Layer_1" xmlns="http://www.w3.org/2000/svg" xmlns:xlink="http://www.w3.org/1999/xlink" x="0px" y="0px"
	 viewBox="0 0 42 42" style="enable-background:new 0 0 42 42;" xml:space="preserve">
<style type="text/css">
	.st0{fill-rule:evenodd;clip-rule:evenodd;fill:#33C4CD;}
	.st1{fill:#FFFFFF;}
</style>
<path class="st0" d="M27.4,0c-11.8,0-1.2,0-12.9,0C2.9,0,0,2.9,0,14.6c0,6.6,0,1.2,0,12.9C0,39.1,2.9,42,14.6,42
	c11.8,0,1.2,0,12.9,0S42,39.1,42,27.4s0-1.2,0-12.9C42,2.9,39.1,0,27.4,0z"/>
<path class="st1" d="M28.8,28.7c0.3-0.9,1.1-1.6,2.1-1.6c1.2,0,2.2,1,2.2,2.2c0,1.2-1,2.2-2.2,2.2c-1,0-1.8-0.7-2.1-1.6H14.7
	c-0.3,0.9-1.1,1.6-2.1,1.6c-1.2,0-2.2-1-2.2-2.2c0-1,0.7-1.9,1.6-2.1V13.1c-0.9-0.3-1.6-1.1-1.6-2.1c0-1.2,1-2.2,2.2-2.2
	c1.2,0,2.2,1,2.2,2.2c0,1-0.7,1.8-1.6,2.1v13.3l5.1-12.3c-0.8-0.6-1.1-1.6-0.7-2.6c0.5-1.1,1.7-1.7,2.9-1.2c1.1,0.5,1.6,1.7,1.2,2.9
	c-0.4,0.9-1.3,1.4-2.3,1.3l-5.1,12.3l9.4-9.4c-0.5-0.8-0.4-1.9,0.3-2.6c0.9-0.9,2.2-0.9,3.1,0c0.9,0.9,0.9,2.2,0,3.1
	c-0.7,0.7-1.8,0.8-2.6,0.3l-9.4,9.4l12.3-5.1c-0.1-1,0.4-1.9,1.3-2.3c1.1-0.5,2.4,0.1,2.9,1.2c0.5,1.1-0.1,2.4-1.2,2.9
	c-0.9,0.4-2,0.1-2.6-0.7l-12.3,5.1H28.8z"/>
</svg>
