<?xml version="1.0" encoding="utf-8"?>
<!-- Generator: Adobe Illustrator 25.2.3, SVG Export Plug-In . SVG Version: 6.00 Build 0)  -->
<svg version="1.1" id="Layer_1" xmlns="http://www.w3.org/2000/svg" xmlns:xlink="http://www.w3.org/1999/xlink" x="0px" y="0px"
	 viewBox="0 0 42 42" style="enable-background:new 0 0 42 42;" xml:space="preserve">
<style type="text/css">
	.st0{fill-rule:evenodd;clip-rule:evenodd;fill:#3CB250;}
	.st1{fill:#FFFFFF;}
</style>
<path class="st0" d="M27.4,0c-11.8,0-1.2,0-12.9,0C2.9,0,0,2.9,0,14.6c0,6.6,0,1.2,0,12.9C0,39.1,2.9,42,14.6,42
	c11.8,0,1.2,0,12.9,0S42,39.1,42,27.4s0-1.2,0-12.9C42,2.9,39.1,0,27.4,0z"/>
<path class="st1" d="M39,18.4c-0.5,2-1.3,3.9-1,6c-0.3,0-0.5,0-0.8,0c0.3-2.1-0.6-4.1-1-6.1c0.3,0,0.5,0,0.7,0
	c0.2,0.9,0.4,1.8,0.6,2.7c0,0,0.1,0,0.1,0c0.2-0.9,0.4-1.8,0.6-2.8c0.3,0,0.5,0,0.7,0C39,18.3,39,18.4,39,18.4z"/>
<path class="st1" d="M6.6,19.6c-0.3,0-0.5,0-0.8,0c0-0.5,0-0.9,0-1.3c0-0.4-0.1-0.5-0.5-0.6c-0.4,0-0.6,0.1-0.6,0.5c0,0.3,0,0.7,0,1
	c0,0.2,0.2,0.4,0.3,0.6c0.2,0.3,0.5,0.4,0.8,0.7C6,20.7,6.2,20.8,6.3,21c0.4,0.5,0.4,2.5,0.1,3c-0.4,0.5-0.9,0.5-1.5,0.4
	c-0.4-0.1-0.8-0.3-0.8-0.8C4,23,4,22.3,4,21.6c0.2,0,0.3,0,0.4,0c0.3,0,0.4,0.1,0.4,0.4c0,0.4,0,0.8,0,1.2c0,0.4,0.2,0.5,0.5,0.5
	c0.4,0,0.6-0.1,0.6-0.5c0-0.1,0-0.1,0-0.2c0-1.6,0.2-1.2-1.1-2.3c-0.6-0.5-0.8-1-0.8-1.7c0-0.4,0-0.9,0.1-1.3
	C4.2,17.2,4.6,17,5.3,17c0.7,0,1.1,0.2,1.2,0.8C6.6,18.4,6.6,19,6.6,19.6z"/>
<path class="st1" d="M33.2,18.3c0.6,0,1.2,0,1.7,0c0.5,0.1,0.8,0.4,0.8,0.9c0,0.5,0,1,0,1.5c0,0.3-0.2,0.6-0.4,0.8
	c0.3,0.1,0.4,0.5,0.4,0.9c0,0.6,0,1.3,0,2c-0.2,0-0.3,0-0.4,0c-0.2,0-0.3-0.1-0.3-0.3c0-0.5,0-1,0-1.5c0-0.7-0.1-0.8-0.8-0.8
	c-0.1,0-0.2,0-0.3,0c0,0.9,0,1.7,0,2.5c-0.3,0-0.5,0-0.7,0C33.2,22.4,33.2,20.3,33.2,18.3z M34,18.9c0,0.8,0,1.5,0,2.3
	c0.2,0,0.3,0,0.4,0c0.5,0,0.7-0.1,0.7-0.7c0-0.2,0-0.5,0-0.7C35,18.9,35,18.9,34,18.9z"/>
<path class="st1" d="M29.8,21.3c0-0.6,0-1.3,0-1.9c0-0.8,0.4-1.1,1.1-1.1c0.2,0,0.4,0,0.5,0c0.6,0.1,1,0.4,1,1c0,1.4,0,2.8,0,4.2
	c0,0.6-0.4,1-1,1c-0.2,0-0.3,0-0.5,0c-0.8,0-1.2-0.4-1.2-1.2C29.8,22.6,29.8,22,29.8,21.3z M30.6,21.3c0,0.7,0,1.3,0,2
	c0,0.4,0.1,0.5,0.6,0.5c0.5,0,0.6-0.1,0.6-0.5c0-1.3,0-2.6,0-3.8c0-0.5-0.1-0.6-0.6-0.6c-0.5,0-0.6,0.1-0.6,0.6
	C30.6,20.1,30.6,20.7,30.6,21.3z"/>
<path class="st1" d="M10.2,24.4c-0.8,0.1-0.8,0.1-1-0.5c-0.3-0.7-0.6-1.4-1-2.1c0,0.9,0,1.8,0,2.7c-0.3,0-0.5,0-0.7,0c0-2,0-4,0-6.1
	c0.2,0,0.4,0,0.7,0c0,0.9,0,1.7,0,2.6c0,0,0.1,0,0.1,0c0.3-0.7,0.7-1.4,1-2.2c0.3-0.6,0.3-0.6,1-0.5c-0.2,0.4-0.3,0.8-0.5,1.2
	C9.5,20.1,9,20.7,9,21.3c0,0.6,0.4,1.2,0.7,1.8C9.8,23.5,10,23.9,10.2,24.4z"/>
<path class="st1" d="M22.8,24.4c-0.3,0-0.5,0-0.7,0c-0.1-0.3-0.1-0.7-0.2-1c-0.4,0-0.8,0-1.2,0c0,0.2-0.1,0.3-0.1,0.5
	c-0.1,0.6-0.1,0.6-0.8,0.5c0.3-2,0.7-4,1-6.1c0.3,0,0.6,0,0.9,0C22.1,20.3,22.4,22.3,22.8,24.4z M21.3,19.7c0,0-0.1,0-0.1,0
	c-0.2,1-0.3,2-0.5,3c0.4,0,0.7,0,1,0C21.6,21.7,21.5,20.7,21.3,19.7z"/>
<path class="st1" d="M26,22.1c0,0.5,0,1,0,1.5c0,0.4-0.3,0.8-0.7,0.8c-0.4,0.1-0.8,0.1-1.2,0c-0.5-0.1-0.7-0.4-0.7-0.9
	c0-1.4,0-2.9,0-4.3c0-0.6,0.4-0.9,1-0.9c0.2,0,0.4,0,0.5,0c0.7,0,1,0.4,1.1,1.1c0,0.4,0,0.7,0,1.1c-0.3,0-0.5,0-0.7,0
	c0-0.4,0-0.7,0-1.1c0-0.4-0.2-0.5-0.5-0.5c-0.3,0-0.6,0.1-0.6,0.4c0,1.4,0,2.7,0,4.1c0,0.4,0.3,0.4,0.6,0.4c0.3,0,0.6-0.1,0.6-0.5
	c0-0.4,0-0.9,0-1.3C25.5,22.1,25.7,22.1,26,22.1z"/>
<path class="st1" d="M17.6,17c0.8,0,1.6,0,2.4,0c0,0.2,0,0.4,0,0.6c-0.5,0-1.1,0-1.6,0c0,0.7,0,1.3,0,2c0.4,0,0.7,0,1.1,0
	c0,0.2,0,0.4,0,0.6c-0.4,0-0.7,0-1.1,0c0,0.2,0,0.3,0,0.5c0,1,0,2,0,3c0,0.7,0,0.7-0.7,0.6C17.6,21.9,17.6,19.5,17.6,17z"/>
<path class="st1" d="M27.6,18.9c-0.3,0-0.6,0-0.9,0c0-0.2,0-0.4,0-0.6c0.9,0,1.7,0,2.6,0c0,0.2,0,0.4,0,0.6c-0.3,0-0.6,0-0.9,0
	c0,0.2,0,0.3,0,0.5c0,1.5,0,3,0,4.5c0,0.6,0,0.6-0.7,0.5C27.6,22.6,27.6,20.8,27.6,18.9z"/>
<path class="st1" d="M13.2,23.8c0.4,0,0.8,0,1.2,0c0,0.2,0,0.4,0,0.6c-0.6,0-1.3,0-1.9,0c0-2,0-4,0-6.1c0.2,0,0.5,0,0.7,0
	C13.2,20.1,13.2,21.9,13.2,23.8z"/>
<path class="st1" d="M15,18.3c0.2,0,0.4,0,0.7,0c0,1.8,0,3.6,0,5.5c0.4,0,0.8,0,1.2,0c0,0.2,0,0.4,0,0.6c-0.6,0-1.3,0-1.9,0
	C15,22.3,15,20.3,15,18.3z"/>
<path class="st1" d="M11.6,24.4c-0.3,0-0.5,0-0.7,0c0-2,0-4.1,0-6.1c0.2,0,0.5,0,0.7,0C11.6,20.3,11.6,22.3,11.6,24.4z"/>
</svg>
