<?xml version="1.0" encoding="utf-8"?>
<!-- Generator: Adobe Illustrator 25.2.3, SVG Export Plug-In . SVG Version: 6.00 Build 0)  -->
<svg version="1.1" id="Layer_1" xmlns="http://www.w3.org/2000/svg" xmlns:xlink="http://www.w3.org/1999/xlink" x="0px" y="0px"
	 viewBox="0 0 42 42" style="enable-background:new 0 0 42 42;" xml:space="preserve">
<style type="text/css">
	.st0{fill-rule:evenodd;clip-rule:evenodd;fill:#3D3BFF;}
	.st1{fill:#FFFFFF;}
</style>
<path class="st0" d="M27.4,0c-11.8,0-1.2,0-12.9,0C2.9,0,0,2.9,0,14.6c0,6.6,0,1.2,0,12.9C0,39.1,2.9,42,14.6,42
	c11.8,0,1.2,0,12.9,0S42,39.1,42,27.4s0-1.2,0-12.9C42,2.9,39.1,0,27.4,0z"/>
<path class="st1" d="M21.3,31.4c4.1,0,6.7-2.4,6.7-5.6c0-3.5-2.8-5-5.9-6c-3.4-1-4.3-2.1-4.3-3.8c0-1.8,2-3.1,3.9-3.1
	c1.6,0,2.9,0.8,4.3,2l1.4-1.5c-1.6-1.4-3.2-2.5-5.7-2.5c-3.4,0-5.8,2.3-5.8,5.2c0,2.9,1.9,4.4,5.5,5.5c3.2,1,4.8,2.3,4.8,4.2
	c0,2.3-2.5,3.6-4.8,3.6c-2.1,0-3.6-1.2-4.9-2.4L15,28.6C16.6,30.3,18.9,31.3,21.3,31.4z"/>
</svg>
