<?xml version="1.0" encoding="utf-8"?>
<!-- Generator: Adobe Illustrator 25.2.3, SVG Export Plug-In . SVG Version: 6.00 Build 0)  -->
<svg version="1.1" id="Layer_1" xmlns="http://www.w3.org/2000/svg" xmlns:xlink="http://www.w3.org/1999/xlink" x="0px" y="0px"
	 viewBox="0 0 42 42" style="enable-background:new 0 0 42 42;" xml:space="preserve">
<style type="text/css">
	.st0{fill-rule:evenodd;clip-rule:evenodd;fill:#061055;}
	.st1{fill:url(#SVGID_1_);}
	.st2{fill:url(#SVGID_2_);}
	.st3{fill:#4BF9E8;}
</style>
<path class="st0" d="M27.4,0c-11.8,0-1.2,0-12.9,0C2.9,0,0,2.9,0,14.6c0,6.6,0,1.2,0,12.9C0,39.1,2.9,42,14.6,42
	c11.8,0,1.2,0,12.9,0S42,39.1,42,27.4s0-1.2,0-12.9C42,2.9,39.1,0,27.4,0z"/>
<radialGradient id="SVGID_1_" cx="-279.7641" cy="410.3436" r="1" gradientTransform="matrix(19.279 -20.9176 -11.0494 -10.1839 9948.4404 -1652.147)" gradientUnits="userSpaceOnUse">
	<stop  offset="0.2815" style="stop-color:#4BF9E8"/>
	<stop  offset="0.3185" style="stop-color:#41D8D3"/>
	<stop  offset="0.3844" style="stop-color:#32A4B2"/>
	<stop  offset="0.4514" style="stop-color:#247696"/>
	<stop  offset="0.5181" style="stop-color:#19517E"/>
	<stop  offset="0.5844" style="stop-color:#11356C"/>
	<stop  offset="0.6503" style="stop-color:#0B205F"/>
	<stop  offset="0.7155" style="stop-color:#071458"/>
	<stop  offset="0.7795" style="stop-color:#061055"/>
</radialGradient>
<path class="st1" d="M27.9,3H14.1C11,3,5.2,3,3,3c0,2.6,0,8,0,11.1v13.8c0,3.3,0,8.4,0,11.1c2.3,0,8.2,0,11.1,0h13.8
	c3.1,0,8.7,0,11.1,0c0-3.6,0-8,0-11.1V14.1c0-3,0-8.6,0-11.1C36.8,3,31.1,3,27.9,3z"/>
<linearGradient id="SVGID_2_" gradientUnits="userSpaceOnUse" x1="12.6636" y1="14.5336" x2="28.1679" y2="28.0998" gradientTransform="matrix(1 0 0 -1 0 41.8898)">
	<stop  offset="0" style="stop-color:#0000C9"/>
	<stop  offset="0.1277" style="stop-color:#2006C9"/>
	<stop  offset="0.3216" style="stop-color:#4A0EC8"/>
	<stop  offset="0.5106" style="stop-color:#6B14C8"/>
	<stop  offset="0.6905" style="stop-color:#8318C7"/>
	<stop  offset="0.8578" style="stop-color:#911BC7"/>
	<stop  offset="1" style="stop-color:#961CC7"/>
</linearGradient>
<path class="st2" d="M29.9,14.7c-0.6-0.6-1.4-1-2.4-1.1c-0.1-0.9-0.5-1.7-1.1-2.4c-4.2-4.2-11-4.2-15.2,0c-4.2,4.2-4.2,11,0,15.2
	c0.6,0.6,1.4,1,2.4,1.1c0.1,0.9,0.5,1.7,1.1,2.4c4.2,4.2,11,4.2,15.2,0C34,25.7,34,18.9,29.9,14.7z"/>
<path class="st3" d="M17.8,17.8c3.1-3.1,6.9-4.7,9.7-4.3c-0.1-0.9-0.5-1.7-1.1-2.4c-2.5-2.5-7.9-1-12,3.1c-4.2,4.2-5.6,9.6-3.1,12
	c0.6,0.6,1.4,1,2.4,1.1C13.1,24.7,14.7,20.9,17.8,17.8z"/>
</svg>
