<?xml version="1.0" encoding="utf-8"?>
<!-- Generator: Adobe Illustrator 25.2.3, SVG Export Plug-In . SVG Version: 6.00 Build 0)  -->
<svg version="1.1" id="Layer_1" xmlns="http://www.w3.org/2000/svg" xmlns:xlink="http://www.w3.org/1999/xlink" x="0px" y="0px"
	 viewBox="0 0 42 42" style="enable-background:new 0 0 42 42;" xml:space="preserve">
<style type="text/css">
	.st0{fill-rule:evenodd;clip-rule:evenodd;fill:#005FF9;}
	.st1{fill:#466EFE;fill-opacity:0.4;}
	.st2{fill:#FFFFFF;filter:url(#Adobe_OpacityMaskFilter);}
	.st3{mask:url(#mask0_1_);}
	.st4{fill:#FFFFFF;}
	.st5{fill:none;stroke:#000000;stroke-width:1.6234;stroke-opacity:0.3;}
	.st6{fill:#2C2D2E;stroke:#2C2D2E;stroke-width:0.8117;}
</style>
<path class="st0" d="M27.4,0c-11.8,0-1.2,0-12.9,0C2.9,0,0,2.9,0,14.6c0,6.6,0,1.2,0,12.9C0,39.1,2.9,42,14.6,42
	c11.8,0,1.2,0,12.9,0S42,39.1,42,27.4s0-1.2,0-12.9C42,2.9,39.1,0,27.4,0z"/>
<g>
	<circle class="st1" cx="21" cy="21" r="12"/>
</g>
<defs>
	<filter id="Adobe_OpacityMaskFilter" filterUnits="userSpaceOnUse" x="5.8" y="5.8" width="29.6" height="31.2">
		<feColorMatrix  type="matrix" values="1 0 0 0 0  0 1 0 0 0  0 0 1 0 0  0 0 0 1 0"/>
	</filter>
</defs>
<mask maskUnits="userSpaceOnUse" x="5.8" y="5.8" width="29.6" height="31.2" id="mask0_1_">
	<circle class="st2" cx="21" cy="21" r="12"/>
</mask>
<g class="st3">
	<g>
		<circle class="st4" cx="19.4" cy="19.4" r="13.6"/>
	</g>
	<g>
		<circle class="st4" cx="19" cy="19" r="11.2"/>
	</g>
	<g>
		<circle class="st4" cx="19" cy="19" r="11.2"/>
	</g>
	<path class="st5" d="M12.6,15.4l5.8,6.2"/>
	<path class="st5" d="M26.2,13l-2.8,7.6"/>
	<circle class="st5" cx="21.6" cy="23.2" r="13"/>
	<path class="st6" d="M24.4,8.7c-0.3,0.1-0.6,0.3-0.9,0.5c-0.7,0.5-0.6,1.5,0,2.1l2.1,2.1c0.3,0.3,0.7,0.5,1.1,0.5H28
		c0.9,0,1.6-0.7,1.3-1.6c-0.4-0.9-1.1-1.7-1.6-2.3c-0.2-0.2-0.4-0.4-0.7-0.5l-1.8-0.7C24.9,8.7,24.7,8.6,24.4,8.7z"/>
	<path class="st6" d="M14.4,11.2L13.8,11c-0.3-0.1-0.5-0.1-0.8,0.1l-1.2,0.9c-0.1,0-0.1,0.1-0.1,0.1l-1.5,1.8c0,0.1-0.1,0.1-0.1,0.2
		c-0.2,0.5-0.3,1.3-0.3,2c0,0.7,1.1,1.2,1.8,0.9c0.4-0.2,0.8-0.3,1.1-0.4c0.4-0.1,0.8-0.5,0.9-0.9c0.2-0.9,0.6-2.1,1.2-3
		C15.1,12.1,15,11.4,14.4,11.2z"/>
	<path class="st5" d="M26.2,24.2H32"/>
	<path class="st6" d="M31.6,27.2l-0.3-2.3c-0.1-0.4,0.1-0.8,0.3-1.2c1.1-2,1.4-5.2,1.4-6.6l1.8,6.8L31.6,27.2z"/>
	<path class="st5" d="M22.6,28.2l1,4"/>
	<path class="st6" d="M23,31.8c-1.2,0.6-3.5,1.1-4.6,1.2l6,0.8l4.6-3.6c-1.4,0.9-3.8,1.2-5.2,1.4C23.6,31.6,23.3,31.7,23,31.8z"/>
	<path class="st5" d="M17.4,25.8l-4.8,1.8"/>
	<path class="st6" d="M13.5,30.5L13,28.2c-0.1-0.4-0.3-0.8-0.7-1c-1.8-1.3-3.4-3.3-3.6-5.8l0.6,7L13.5,30.5z"/>
	<path class="st6" d="M17.1,25l0.3-3c0.1-0.7,0.6-1.3,1.3-1.4l3.9-0.8c0.7-0.1,1.4,0.2,1.7,0.8l1.6,2.8c0.4,0.6,0.3,1.4-0.2,1.9
		l-2.4,2.5c-0.5,0.5-1.2,0.6-1.8,0.4l-3.5-1.5C17.4,26.4,17.1,25.7,17.1,25z"/>
</g>
</svg>
