<?xml version="1.0" encoding="utf-8"?>
<!-- Generator: Adobe Illustrator 25.2.3, SVG Export Plug-In . SVG Version: 6.00 Build 0)  -->
<svg version="1.1" id="Layer_1" xmlns="http://www.w3.org/2000/svg" xmlns:xlink="http://www.w3.org/1999/xlink" x="0px" y="0px"
	 viewBox="0 0 42 42" style="enable-background:new 0 0 42 42;" xml:space="preserve">
<style type="text/css">
	.st0{fill-rule:evenodd;clip-rule:evenodd;}
	.st1{fill-rule:evenodd;clip-rule:evenodd;fill:url(#SVGID_1_);}
	.st2{fill-rule:evenodd;clip-rule:evenodd;fill:url(#SVGID_2_);}
	.st3{fill-rule:evenodd;clip-rule:evenodd;fill:#FF0D2A;}
</style>
<path class="st0" d="M27.4,0c-11.8,0-1.2,0-12.9,0C2.9,0,0,2.9,0,14.6c0,6.6,0,1.2,0,12.9C0,39.1,2.9,42,14.6,42
	c11.8,0,1.2,0,12.9,0S42,39.1,42,27.4s0-1.2,0-12.9C42,2.9,39.1,0,27.4,0z"/>
<radialGradient id="SVGID_1_" cx="-291.5317" cy="464.3996" r="1" gradientTransform="matrix(-17.7701 0 0 17.7701 -5153.583 -8230.9316)" gradientUnits="userSpaceOnUse">
	<stop  offset="0.3731" style="stop-color:#FF0D0D;stop-opacity:0.51"/>
	<stop  offset="1" style="stop-color:#FF0D2A"/>
</radialGradient>
<path class="st1" d="M20.9,13.2c0.6,0.4,1.6,1.3,2.7,2.4c1.1,1.1,2,2.1,2.3,2.7c1.2,1.7,1.2,4,0,5.7c-0.4,0.6-1.3,1.6-2.4,2.7
	c-1.1,1.1-2.1,2-2.7,2.4c-1.7,1.2-4,1.1-5.7,0c-0.6-0.4-1.6-1.3-2.7-2.3c-1.1-1.1-2-2.1-2.4-2.7C9,22.2,9,20,10.1,18.4
	c0.3-0.6,1.3-1.6,2.4-2.8s2.3-2.1,2.8-2.4C17,12,19.2,12,20.9,13.2z"/>
<radialGradient id="SVGID_2_" cx="-254.8048" cy="411.1721" r="1" gradientTransform="matrix(13.0218 0 0 -13.0218 3338.1099 5375.2368)" gradientUnits="userSpaceOnUse">
	<stop  offset="0.3297" style="stop-color:#FF0000;stop-opacity:0.38"/>
	<stop  offset="1" style="stop-color:#FF001F;stop-opacity:0.88"/>
</radialGradient>
<path class="st2" d="M28.4,14.7c0.5,0.3,1.3,1,2.2,1.9c0.9,0.9,1.6,1.7,1.9,2.1c0.9,1.4,0.9,3.2,0,4.5c-0.3,0.5-1,1.3-1.9,2.2
	c-0.9,0.9-1.7,1.6-2.2,1.9c-1.4,0.9-3.2,0.9-4.5,0c-0.5-0.3-1.3-1-2.1-1.9c-0.9-0.9-1.6-1.7-1.9-2.2c-0.9-1.3-0.9-3.1-0.1-4.4
	c0.3-0.4,1-1.3,2-2.3c0.9-0.9,1.8-1.7,2.3-2C25.3,13.8,27.1,13.9,28.4,14.7z"/>
<path class="st3" d="M23.3,15.2c0.1,0.1,0.2,0.2,0.3,0.3c1.1,1.1,2,2.1,2.3,2.7c1.2,1.7,1.2,4,0,5.7c-0.4,0.6-1.3,1.6-2.4,2.7
	c-0.1,0.1-0.2,0.2-0.3,0.3c-0.4-0.4-1-0.9-1.6-1.4c-0.9-0.9-1.6-1.7-1.9-2.2c-0.9-1.3-0.9-3.1-0.1-4.4c0.3-0.4,1-1.3,2-2.3
	C22.3,16.1,22.8,15.6,23.3,15.2z"/>
</svg>
