<?xml version="1.0" encoding="utf-8"?>
<!-- Generator: Adobe Illustrator 25.2.3, SVG Export Plug-In . SVG Version: 6.00 Build 0)  -->
<svg version="1.1" id="Layer_1" xmlns="http://www.w3.org/2000/svg" xmlns:xlink="http://www.w3.org/1999/xlink" x="0px" y="0px"
	 viewBox="0 0 42 42" style="enable-background:new 0 0 42 42;" xml:space="preserve">
<style type="text/css">
	.st0{fill-rule:evenodd;clip-rule:evenodd;fill:#7D28DD;}
	.st1{fill:#FFFFFF;}
	.st2{fill:#5ECEF6;}
	.st3{fill:#09CD81;}
	.st4{fill:#FF62BB;}
</style>
<path class="st0" d="M27.4,0c-11.8,0-1.2,0-12.9,0C2.9,0,0,2.9,0,14.6c0,6.6,0,1.2,0,12.9C0,39.1,2.9,42,14.6,42
	c11.8,0,1.2,0,12.9,0S42,39.1,42,27.4s0-1.2,0-12.9C42,2.9,39.1,0,27.4,0z"/>
<path class="st1" d="M18.9,14.8c-0.1,0-0.2,0-0.3,0c-1.8,0-3.6,0-5.4,0c-0.9,0-1.7-0.8-1.8-1.7c-0.1-1.2,0.9-2.1,2-2.1
	c5.1,0,10.3,0,15.4,0c1.1,0,1.9,0.6,2,1.7c0.1,1-0.7,2-1.8,2c-1.8,0-3.6,0-5.3,0c-0.1,0-0.2,0-0.3,0c0,0.1,0,0.2,0,0.2
	c0,4.4,0,8.9,0,13.3c0,1.2-0.7,2.1-1.8,2.4c-1.4,0.3-2.8-0.7-2.8-2.2c0-4.5,0-9,0-13.5C18.9,14.9,18.9,14.9,18.9,14.8z"/>
<path class="st2" d="M33,23.6c-0.1,2.5-0.9,4.6-2.5,6.5c-1,1.1-2.7,1-3.4-0.3c-0.4-0.8-0.3-1.7,0.3-2.4c0.7-0.8,1.2-1.6,1.3-2.6
	c0.4-1.9-0.1-3.6-1.6-5c-0.7-0.6-0.9-1.5-0.5-2.3c0.3-0.8,1.1-1.3,2-1.2c0.5,0,0.9,0.2,1.3,0.5c1.6,1.4,2.6,3.2,3,5.4
	C32.9,22.5,32.9,23,33,23.6z"/>
<path class="st3" d="M11.2,23.2c0.6,0,1.1,0.3,1.6,0.8c1.1,1.1,2.2,2.2,3.3,3.3c0.6,0.6,0.8,1.4,0.5,2.2c-0.3,0.8-0.9,1.2-1.7,1.3
	c-0.7,0.1-1.3-0.1-1.8-0.7c-0.8-0.8-1.6-1.6-2.4-2.4c-0.4-0.4-0.8-0.8-1.2-1.2c-0.5-0.6-0.5-1.8,0-2.4C9.8,23.5,10.4,23.2,11.2,23.2
	z"/>
<path class="st4" d="M12.8,22.2c-1.6,0-3-1.3-3-2.9c0-1.8,1.3-3.1,3-3.1c1.7,0,3.1,1.3,3.1,3S14.5,22.2,12.8,22.2z"/>
</svg>
