<?xml version="1.0" encoding="utf-8"?>
<!-- Generator: Adobe Illustrator 25.2.3, SVG Export Plug-In . SVG Version: 6.00 Build 0)  -->
<svg version="1.1" id="Layer_1" xmlns="http://www.w3.org/2000/svg" xmlns:xlink="http://www.w3.org/1999/xlink" x="0px" y="0px"
	 viewBox="0 0 42 42" style="enable-background:new 0 0 42 42;" xml:space="preserve">
<style type="text/css">
	.st0{fill-rule:evenodd;clip-rule:evenodd;fill:#833AE1;}
	.st1{fill:#FFFFFF;}
</style>
<g>
	<path class="st0" d="M27.4,0c-11.8,0-1.2,0-12.9,0C2.9,0,0,2.9,0,14.6c0,6.6,0,1.2,0,12.9C0,39.1,2.9,42,14.6,42
		c11.8,0,1.2,0,12.9,0S42,39.1,42,27.4s0-1.2,0-12.9C42,2.9,39.1,0,27.4,0z"/>
	<path class="st1" d="M9,20c0-3,0-6,0-8.9C9,9.7,10,8,12,8c1.4,0,2.7,0,4.1,0c4.6,0,9.1,0,13.7,0c1.3,0,2.4,0.5,2.9,1.8
		c0.2,0.4,0.3,0.9,0.3,1.3c0,6,0,11.9,0,17.9c0,1.8-1.3,3.1-3.1,3.1c-1.5,0-3,0-4.4,0c-0.5,0-0.9,0.1-1.2,0.5
		c-0.7,0.6-1.4,1.3-2.1,1.9c-0.7,0.7-1.5,0.7-2.2,0c-0.7-0.6-1.3-1.2-2-1.8C17.5,32.2,17,32,16.4,32c-1.4,0-2.9,0-4.3,0
		c-1.5,0-2.7-0.9-3-2.3C9,29.6,9,29.4,9,29.1C9,26.1,9,23,9,20z M17.8,18.1c0.2-0.2,0.3-0.3,0.5-0.4c0.5-0.3,1.1-0.8,1.7-1
		c1.4-0.4,3.2,0,3.1,2.1c0,0.3-0.1,0.4-0.4,0.4c-0.9,0-1.7,0-2.6,0c-0.7,0-1.4,0.1-2,0.3c-1.3,0.4-2.1,1.2-2.2,2.6
		c-0.1,1.4,0.4,2.5,1.7,3.2c1.5,0.8,4,0.6,5.3-0.6c0.1-0.1,0.2-0.2,0.4-0.3c0,0.3,0,0.4,0,0.6c-0.1,0.4,0.1,0.5,0.5,0.5
		c0.6,0,1.2,0,1.7,0c0.3,0,0.4-0.1,0.4-0.4c0-2.3,0-4.7,0-7c-0.1-2-1.3-3.4-3.2-3.9C22,14,21.1,14,20.3,14.1c-1.6,0.2-2.9,1-3.9,2.2
		C16.8,16.9,17.3,17.5,17.8,18.1z"/>
	<path class="st1" d="M23,21.2c0.1,1-0.3,1.7-1.1,2.2c-0.8,0.5-1.6,0.5-2.5,0c-0.4-0.2-0.6-0.8-0.5-1.3c0.1-0.5,0.5-0.9,1.1-0.9
		C21,21.2,22,21.2,23,21.2z"/>
</g>
</svg>
