<?xml version="1.0" encoding="utf-8"?>
<!-- Generator: Adobe Illustrator 25.2.3, SVG Export Plug-In . SVG Version: 6.00 Build 0)  -->
<svg version="1.1" id="Layer_1" xmlns="http://www.w3.org/2000/svg" xmlns:xlink="http://www.w3.org/1999/xlink" x="0px" y="0px"
	 viewBox="0 0 42 42" style="enable-background:new 0 0 42 42;" xml:space="preserve">
<style type="text/css">
	.st0{fill-rule:evenodd;clip-rule:evenodd;fill:#FFFFFF;}
	.st1{fill:#365FF6;}
	.st2{fill:#2848BA;}
	.st3{fill-rule:evenodd;clip-rule:evenodd;fill:#FFFFFF;}
</style>
<path class="st0" d="M27.3,0.4c-11.5,0-1.2,0-12.6,0C3.2,0.4,0.4,3.2,0.4,14.7c0,6.5,0,1.2,0,12.6c0,11.4,2.8,14.2,14.3,14.2
	c11.5,0,1.2,0,12.6,0s14.2-2.8,14.2-14.3s0-1.2,0-12.6C41.6,3.2,38.8,0.4,27.3,0.4z"/>
<path class="st1" d="M21.5,34.8l11.5-4v-10H21.5V34.8z"/>
<path class="st2" d="M33,8l-5.7,2.4L21.5,8v12.9H33V8z"/>
<path class="st2" d="M21.5,34.8l-11.5-4v-10h11.5V34.8z"/>
<path class="st1" d="M21.5,8l-5.7,2.4L10,8v12.9h11.5V8z"/>
<path class="st3" d="M24.3,27.5l-2.8-2.8l-2.8,2.8h2.8H24.3z"/>
<path class="st3" d="M16.6,14.9v4.6c0,2.6,2.2,4.8,4.9,4.8c2.7,0,4.9-2.1,4.9-4.8v-4.6H16.6z"/>
<path class="st3" d="M26.9,20.9h1.3l1.4-4.2h-1.3L26.9,20.9z"/>
<path class="st3" d="M16.1,20.9h-1.3l-1.4-4.2h1.3L16.1,20.9z"/>
</svg>
