<?xml version="1.0" encoding="utf-8"?>
<!-- Generator: Adobe Illustrator 25.2.3, SVG Export Plug-In . SVG Version: 6.00 Build 0)  -->
<svg version="1.1" id="Layer_1" xmlns="http://www.w3.org/2000/svg" xmlns:xlink="http://www.w3.org/1999/xlink" x="0px" y="0px"
	 viewBox="0 0 42 42" style="enable-background:new 0 0 42 42;" xml:space="preserve">
<style type="text/css">
	.st0{fill-rule:evenodd;clip-rule:evenodd;fill:#290053;}
	.st1{fill:url(#SVGID_1_);}
	.st2{fill:url(#SVGID_2_);}
	.st3{fill:url(#SVGID_3_);}
	.st4{fill-rule:evenodd;clip-rule:evenodd;fill:url(#SVGID_4_);}
	.st5{fill-rule:evenodd;clip-rule:evenodd;fill:url(#SVGID_5_);}
	.st6{fill-rule:evenodd;clip-rule:evenodd;fill:url(#SVGID_6_);}
	.st7{fill:url(#SVGID_7_);}
	.st8{fill:url(#SVGID_8_);}
	.st9{fill:url(#SVGID_9_);}
	.st10{fill:url(#SVGID_10_);fill-opacity:0.5;}
	.st11{fill-rule:evenodd;clip-rule:evenodd;fill:url(#SVGID_11_);}
	.st12{fill:url(#SVGID_12_);}
	.st13{fill:url(#SVGID_13_);fill-opacity:0.5;}
	.st14{fill:url(#SVGID_14_);}
	.st15{fill:url(#SVGID_15_);}
</style>
<path class="st0" d="M27.4,0c-11.8,0-1.2,0-12.9,0C2.9,0,0,2.9,0,14.6c0,6.6,0,1.2,0,12.9C0,39.1,2.9,42,14.6,42
	c11.8,0,1.2,0,12.9,0S42,39.1,42,27.4s0-1.2,0-12.9C42,2.9,39.1,0,27.4,0z"/>
<linearGradient id="SVGID_1_" gradientUnits="userSpaceOnUse" x1="27.6405" y1="29.6312" x2="13.8133" y2="11.8867" gradientTransform="matrix(1 0 0 -1 0 41.8898)">
	<stop  offset="0" style="stop-color:#FC6268"/>
	<stop  offset="0.53" style="stop-color:#BF0EFF"/>
	<stop  offset="1" style="stop-color:#3995FF"/>
</linearGradient>
<path class="st1" d="M9,18.5l3.7,11.8l11.9,1.6l8.5-9.1l-4.4-10.3L17.4,9l-4.4,5L9,18.5z"/>
<linearGradient id="SVGID_2_" gradientUnits="userSpaceOnUse" x1="10.8578" y1="22.5755" x2="18.2548" y2="33.9246" gradientTransform="matrix(1 0 0 -1 0 41.8898)">
	<stop  offset="0" style="stop-color:#9A38FB"/>
	<stop  offset="1" style="stop-color:#D13075"/>
</linearGradient>
<path class="st2" d="M9,18.6l4.5,0.2L17.4,9L9,18.6z"/>
<linearGradient id="SVGID_3_" gradientUnits="userSpaceOnUse" x1="21.9677" y1="24.5037" x2="11.0012" y2="29.0078" gradientTransform="matrix(1 0 0 -1 0 41.8898)">
	<stop  offset="0" style="stop-color:#79C5FF"/>
	<stop  offset="1" style="stop-color:#FFFFFF;stop-opacity:1.000000e-02"/>
</linearGradient>
<path class="st3" d="M9,18.6l4.5,0.2L17.4,9L9,18.6z"/>
<linearGradient id="SVGID_4_" gradientUnits="userSpaceOnUse" x1="15.2755" y1="13.8759" x2="9.1745" y2="23.785" gradientTransform="matrix(1 0 0 -1 0 41.8898)">
	<stop  offset="0" style="stop-color:#0892FF"/>
	<stop  offset="1" style="stop-color:#A51FFF"/>
</linearGradient>
<path class="st4" d="M9,18.6l3.7,11.8l0.8-11.6L9,18.6z"/>
<linearGradient id="SVGID_5_" gradientUnits="userSpaceOnUse" x1="17.5488" y1="9.5632" x2="23.1877" y2="14.3344" gradientTransform="matrix(1 0 0 -1 0 41.8898)">
	<stop  offset="0" style="stop-color:#005EB1"/>
	<stop  offset="1" style="stop-color:#8900E4"/>
</linearGradient>
<path class="st5" d="M24.5,28.3l-11.8,2l12.1,1.8L24.5,28.3z"/>
<linearGradient id="SVGID_6_" gradientUnits="userSpaceOnUse" x1="13.0124" y1="11.509" x2="20.3842" y2="19.8834" gradientTransform="matrix(1 0 0 -1 0 41.8898)">
	<stop  offset="0" style="stop-color:#27A0FF"/>
	<stop  offset="1" style="stop-color:#BD47FF"/>
</linearGradient>
<path class="st6" d="M12.7,30.4l0.8-11.6l11.1,9.6L12.7,30.4z"/>
<linearGradient id="SVGID_7_" gradientUnits="userSpaceOnUse" x1="18.088" y1="21.924" x2="22.9714" y2="31.264" gradientTransform="matrix(1 0 0 -1 0 41.8898)">
	<stop  offset="0" style="stop-color:#902EFF"/>
	<stop  offset="1" style="stop-color:#FF5858"/>
</linearGradient>
<path class="st7" d="M17.4,9l-3.9,9.7l13.9-4.3L17.4,9z"/>
<linearGradient id="SVGID_8_" gradientUnits="userSpaceOnUse" x1="19.8955" y1="9.3915" x2="20.5826" y2="29.488" gradientTransform="matrix(1 0 0 -1 0 41.8898)">
	<stop  offset="0" style="stop-color:#FFFFFF"/>
	<stop  offset="1" style="stop-color:#FFFFFF;stop-opacity:1.000000e-02"/>
</linearGradient>
<path class="st8" d="M17.4,9l-3.9,9.7l13.9-4.3L17.4,9z"/>
<linearGradient id="SVGID_9_" gradientUnits="userSpaceOnUse" x1="15.5346" y1="14.9622" x2="28.922" y2="28.0525" gradientTransform="matrix(1 0 0 -1 0 41.8898)">
	<stop  offset="0" style="stop-color:#A966FF"/>
	<stop  offset="1" style="stop-color:#F14E59"/>
</linearGradient>
<path class="st9" d="M13.5,18.7l11,9.6l2.9-13.9L13.5,18.7z"/>
<linearGradient id="SVGID_10_" gradientUnits="userSpaceOnUse" x1="-14.5611" y1="-9.4367" x2="24.6119" y2="22.9984" gradientTransform="matrix(1 0 0 -1 0 41.8898)">
	<stop  offset="0" style="stop-color:#FFFFFF"/>
	<stop  offset="1" style="stop-color:#FFFFFF;stop-opacity:1.000000e-02"/>
</linearGradient>
<path class="st10" d="M13.5,18.7l11,9.6l2.9-13.9L13.5,18.7z"/>
<linearGradient id="SVGID_11_" gradientUnits="userSpaceOnUse" x1="22.9719" y1="10.2093" x2="39.6503" y2="24.1744" gradientTransform="matrix(1 0 0 -1 0 41.8898)">
	<stop  offset="0" style="stop-color:#9D6DD7"/>
	<stop  offset="1" style="stop-color:#EC2F48"/>
</linearGradient>
<path class="st11" d="M24.5,28.3l0.3,3.8l8.5-9.1L24.5,28.3z"/>
<linearGradient id="SVGID_12_" gradientUnits="userSpaceOnUse" x1="22.1156" y1="18.3135" x2="33.1455" y2="24.7522" gradientTransform="matrix(1 0 0 -1 0 41.8898)">
	<stop  offset="0" style="stop-color:#A554FF"/>
	<stop  offset="1" style="stop-color:#FF788E"/>
</linearGradient>
<path class="st12" d="M24.5,28.3l8.9-5.3l-6-8.7L24.5,28.3z"/>
<linearGradient id="SVGID_13_" gradientUnits="userSpaceOnUse" x1="15.5434" y1="19.6317" x2="30.3112" y2="20.9341" gradientTransform="matrix(1 0 0 -1 0 41.8898)">
	<stop  offset="0" style="stop-color:#FFFFFF"/>
	<stop  offset="1" style="stop-color:#FFFFFF;stop-opacity:1.000000e-02"/>
</linearGradient>
<path class="st13" d="M24.5,28.3l8.9-5.3l-6-8.7L24.5,28.3z"/>
<linearGradient id="SVGID_14_" gradientUnits="userSpaceOnUse" x1="23.1661" y1="31.6079" x2="23.0764" y2="29.145" gradientTransform="matrix(1 0 0 -1 0 41.8898)">
	<stop  offset="0" style="stop-color:#FF224E"/>
	<stop  offset="1" style="stop-color:#FFA2A3"/>
</linearGradient>
<path class="st14" d="M17.4,9l11.4,3.3l-1.5,2.2L17.4,9z"/>
<linearGradient id="SVGID_15_" gradientUnits="userSpaceOnUse" x1="32.976" y1="26.12" x2="26.9561" y2="19.9898" gradientTransform="matrix(1 0 0 -1 0 41.8898)">
	<stop  offset="0" style="stop-color:#FA4F57"/>
	<stop  offset="1" style="stop-color:#E0ADE8"/>
</linearGradient>
<path class="st15" d="M28.9,12.3l-1.5,2.2l6,8.6L28.9,12.3z"/>
</svg>
