<?xml version="1.0" encoding="utf-8"?>
<!-- Generator: Adobe Illustrator 25.2.3, SVG Export Plug-In . SVG Version: 6.00 Build 0)  -->
<svg version="1.1" id="Layer_1" xmlns="http://www.w3.org/2000/svg" xmlns:xlink="http://www.w3.org/1999/xlink" x="0px" y="0px"
	 viewBox="0 0 42 42" style="enable-background:new 0 0 42 42;" xml:space="preserve">
<style type="text/css">
	.st0{fill-rule:evenodd;clip-rule:evenodd;fill:#FFFFFF;}
	.st1{fill:url(#SVGID_1_);}
</style>
<path class="st0" d="M27.3,0.4c-11.5,0-1.2,0-12.6,0C3.2,0.4,0.4,3.2,0.4,14.7c0,6.5,0,1.2,0,12.6s2.8,14.2,14.3,14.2s1.2,0,12.6,0
	s14.2-2.8,14.2-14.3s0-1.2,0-12.6C41.6,3.2,38.8,0.4,27.3,0.4z"/>
<linearGradient id="SVGID_1_" gradientUnits="userSpaceOnUse" x1="25.3697" y1="30.8598" x2="16.3169" y2="-0.495" gradientTransform="matrix(1 0 0 -1 0 41.8898)">
	<stop  offset="0" style="stop-color:#EB7218"/>
	<stop  offset="5.189540e-02" style="stop-color:#EB6E19"/>
	<stop  offset="0.3551" style="stop-color:#EA5D1D"/>
	<stop  offset="0.6673" style="stop-color:#E9521F"/>
	<stop  offset="1" style="stop-color:#E94E1F"/>
</linearGradient>
<path class="st1" d="M10.9,23.6l4-13.6c0.4-1.5,1.8-2.5,3.3-2.5l0,0c2.3,0,4,2.2,3.3,4.4l-0.1,0.5c0,0,0,0.1,0,0.1l0,0
	c0,0,0,0.1,0,0.1L18,24.1c-0.2,0.8,0.4,1.6,1.2,1.6l0,0c0.9,0,1.5,0.9,1.2,1.7c-0.6,1.6-1.2,3-1.7,4.2c-0.7,1.6-2.3,2.8-4,2.3
	c-4.2-1.2-5.3-5.3-3.9-9.9L10.9,23.6z M17.7,34.4c-0.1,0-0.1-0.1-0.1-0.1l7.4-10.5c0.5-0.7,0-1.7-0.9-1.7l0,0c-0.8,0-1.3-0.8-1-1.5
	l1.5-3.8c0.6-1.6,2.3-2.6,3.9-2c3.6,1.5,5.1,5.1,3.8,9.3C30.8,29.7,24.2,34.4,17.7,34.4L17.7,34.4z"/>
</svg>
