<?xml version="1.0" encoding="utf-8"?>
<!-- Generator: Adobe Illustrator 25.2.3, SVG Export Plug-In . SVG Version: 6.00 Build 0)  -->
<svg version="1.1" id="Layer_1" xmlns="http://www.w3.org/2000/svg" xmlns:xlink="http://www.w3.org/1999/xlink" x="0px" y="0px"
	 viewBox="0 0 42 42" style="enable-background:new 0 0 42 42;" xml:space="preserve">
<style type="text/css">
	.st0{fill-rule:evenodd;clip-rule:evenodd;fill:#54008C;}
	.st1{fill:#FA6400;}
	.st2{fill:#FFFFFF;}
</style>
<path class="st0" d="M27.4,0c-11.8,0-1.2,0-12.9,0C2.9,0,0,2.9,0,14.6c0,6.6,0,1.2,0,12.9C0,39.1,2.9,42,14.6,42
	c11.8,0,1.2,0,12.9,0S42,39.1,42,27.4s0-1.2,0-12.9C42,2.9,39.1,0,27.4,0z"/>
<path class="st1" d="M27.8,22h-1.3v5.9H28l2-4h0l-0.1,4h1.3V22h-1.5l-2,4h0L27.8,22z M36.8,22h-3.7L33,25.3c0,1-0.2,1.3-0.7,1.3H32
	v1.3h0.4c1.5,0,1.9-0.6,1.9-2.6l0-2.1h1.2v4.8h1.3L36.8,22L36.8,22z M6,27.9h1.3L7.3,24h0l1.5,3.9h1.3l1.5-3.9h0l-0.1,3.9h1.3V22
	h-1.9l-1.6,4.4h0L7.9,22H6V27.9z M23.6,26.7h-2.4v-1.1h2.4c0.4,0,0.6,0.2,0.6,0.5C24.2,26.6,24,26.7,23.6,26.7z M19.8,22v5.9h3.7
	c1.2,0,2-0.5,2-1.7s-0.9-1.7-2-1.7h-2.3v-1.3h4.2V22H19.8L19.8,22z M15.3,25.2v-0.4c0-1.3,0.3-1.7,1.1-1.7s1.1,0.4,1.1,1.7v0.4
	c0,1.3-0.3,1.7-1.1,1.7S15.3,26.5,15.3,25.2z M13.9,24.8v0.4c0,1.9,0.8,2.9,2.4,2.9s2.4-0.9,2.4-2.9v-0.4c0-1.9-0.8-2.9-2.4-2.9
	S13.9,22.8,13.9,24.8z"/>
<path class="st2" d="M28.7,14.1h-1.5V20h1.6l3.4-4.1h0l0,4.1h1.5v-5.9h-1.6l-3.4,4.1h0L28.7,14.1z M23.6,15.3V20h1.4v-4.7h1.6v-1.2
	H22v1.2H23.6z M17.8,14.1h-1.3V20H18l2-4h0l-0.1,4h1.3v-5.9h-1.5l-2,4h0L17.8,14.1z M15.7,18.5L14.3,18c-0.4,0.8-1.1,0.9-2,0.9
	c-1.4,0-2.1-0.6-2.1-1.8V17c0-1.2,0.7-1.8,2.1-1.8c0.8,0,1.5,0.2,2,0.9l1.4-0.6c-0.7-1.3-2-1.6-3.4-1.6c-2.2,0-3.6,1.2-3.6,3v0.2
	c0,1.8,1.4,3,3.6,3C13.7,20.2,15,19.9,15.7,18.5z"/>
</svg>
