<?xml version="1.0" encoding="utf-8"?>
<!-- Generator: Adobe Illustrator 25.2.3, SVG Export Plug-In . SVG Version: 6.00 Build 0)  -->
<svg version="1.1" id="Layer_1" xmlns="http://www.w3.org/2000/svg" xmlns:xlink="http://www.w3.org/1999/xlink" x="0px" y="0px"
	 viewBox="0 0 42 42" style="enable-background:new 0 0 42 42;" xml:space="preserve">
<style type="text/css">
	.st0{fill-rule:evenodd;clip-rule:evenodd;fill:#54008C;}
	.st1{fill:#33D163;}
	.st2{fill:#FFFFFF;}
</style>
<path class="st0" d="M27.4,0c-11.8,0-1.2,0-12.9,0C2.9,0,0,2.9,0,14.6c0,6.6,0,1.2,0,12.9C0,39.1,2.9,42,14.6,42
	c11.8,0,1.2,0,12.9,0S42,39.1,42,27.4s0-1.2,0-12.9C42,2.9,39.1,0,27.4,0z"/>
<path class="st1" d="M31.6,26.2v-1.1h3c0.4,0,0.7,0.1,0.7,0.5c0,0.4-0.2,0.6-0.7,0.6H31.6z M31.6,23.9v-1.1h2.9
	c0.4,0,0.7,0.2,0.7,0.5c0,0.4-0.2,0.6-0.7,0.6L31.6,23.9L31.6,23.9L31.6,23.9z M30.2,21.7v5.7h4.4c1.2,0,2.2-0.5,2.2-1.6
	c0-0.6-0.3-1-0.8-1.3c0.4-0.2,0.7-0.7,0.7-1.2c0-1.1-0.9-1.6-2.1-1.6H30.2L30.2,21.7z M24.5,20.4v0.9l4-0.4v-0.5H24.5z M25.2,21.7
	h-1.3v5.7h1.5l2.3-3.9h0l-0.1,3.9H29v-5.7h-1.5l-2.3,3.9h0L25.2,21.7z M21.2,25.3H20l0.6-2.3h0L21.2,25.3z M19.8,21.7L18,27.4h1.5
	l0.3-0.9h1.8l0.3,0.9h1.5l-1.8-5.7H19.8L19.8,21.7z M14.3,24.2v-1.3h1.9c0.5,0,0.7,0.3,0.7,0.7c0,0.4-0.2,0.7-0.7,0.7H14.3z
	 M16.1,21.7h-3.2v5.7h1.4v-2.1h1.8c1.2,0,2.1-0.6,2.1-1.8C18.2,22.3,17.4,21.7,16.1,21.7z M12.2,28.5v-2.3h-0.8v-4.5H6.3l-0.1,2.6
	c0,0.7-0.2,1.3-0.6,1.9H5v2.3h1.4v-1.1h4.4v1.1H12.2z M7.6,24.4l0.1-1.5H10v3.3H7.1C7.4,25.7,7.6,25.1,7.6,24.4z"/>
<path class="st2" d="M28,14.1h-1.4v5.7h1.5l3.3-3.9h0l0,3.9h1.4v-5.7h-1.5L28,18.1h0L28,14.1z M23.1,15.2v4.5h1.3v-4.5h1.5v-1.1
	h-4.3v1.1H23.1z M17.5,14.1h-1.3v5.7h1.5l1.9-3.8h0l-0.1,3.8h1.3v-5.7h-1.5L17.5,18h0L17.5,14.1z M15.5,18.4l-1.3-0.6
	c-0.4,0.7-1.1,0.9-1.9,0.9c-1.3,0-2-0.6-2-1.7v-0.1c0-1.1,0.7-1.7,2-1.7c0.8,0,1.5,0.2,1.9,0.9l1.3-0.6c-0.6-1.3-1.9-1.5-3.2-1.5
	c-2.1,0-3.5,1.1-3.5,2.8v0.2c0,1.8,1.3,2.8,3.5,2.8C13.6,19.9,14.9,19.7,15.5,18.4z"/>
</svg>
