<?xml version="1.0" encoding="utf-8"?>
<!-- Generator: Adobe Illustrator 25.2.3, SVG Export Plug-In . SVG Version: 6.00 Build 0)  -->
<svg version="1.1" id="Layer_1" xmlns="http://www.w3.org/2000/svg" xmlns:xlink="http://www.w3.org/1999/xlink" x="0px" y="0px"
	 viewBox="0 0 42 42" style="enable-background:new 0 0 42 42;" xml:space="preserve">
<style type="text/css">
	.st0{fill-rule:evenodd;clip-rule:evenodd;fill:#3520A3;}
	.st1{fill-rule:evenodd;clip-rule:evenodd;fill:#C4C4C4;filter:url(#Adobe_OpacityMaskFilter);}
	.st2{mask:url(#mask0_1_);}
	.st3{fill:#FFFFFF;}
	.st4{fill:url(#SVGID_1_);}
	.st5{fill:url(#SVGID_2_);}
	.st6{fill:url(#SVGID_3_);}
	.st7{fill:url(#SVGID_4_);}
</style>
<path class="st0" d="M27.4,0c-11.8,0-1.2,0-12.9,0C2.9,0,0,2.9,0,14.6c0,6.6,0,1.2,0,12.9C0,39.1,2.9,42,14.6,42
	c11.8,0,1.2,0,12.9,0S42,39.1,42,27.4s0-1.2,0-12.9C42,2.9,39.1,0,27.4,0z"/>
<defs>
	<filter id="Adobe_OpacityMaskFilter" filterUnits="userSpaceOnUse" x="1.9" y="-5.3" width="54.2" height="68.5">
		<feColorMatrix  type="matrix" values="1 0 0 0 0  0 1 0 0 0  0 0 1 0 0  0 0 0 1 0"/>
	</filter>
</defs>
<mask maskUnits="userSpaceOnUse" x="1.9" y="-5.3" width="54.2" height="68.5" id="mask0_1_">
	<path class="st1" d="M11.6,12.8c-1.5,0.9-2.5,2.5-2.5,4.3v7.6c0,1.8,0.9,3.4,2.4,4.3l6.7,4c1.5,0.9,3.3,0.9,4.8,0l6.7-4
		c1.5-0.9,2.4-2.5,2.4-4.3v-7.6c0-1.8-1-3.5-2.5-4.3L22.9,9c-1.4-0.8-3.2-0.8-4.6,0L11.6,12.8z M29.3,24.7V18l-6.2,3.1
		c-0.6,0.3-1,1-1,1.6v7.3l6.2-3.7C28.9,26,29.3,25.4,29.3,24.7z M19.2,30.1l-6.2-3.7c-0.6-0.4-1-1-1-1.7v-6.9l6.2,3.3
		c0.6,0.3,1,0.9,1,1.6L19.2,30.1L19.2,30.1z M21.6,11.6l6.6,3.7l-5.9,3.2c-1,0.5-2.2,0.5-3.2,0l-5.7-3.2l6.4-3.6
		C20.3,11.3,21,11.3,21.6,11.6z"/>
</mask>
<g class="st2">
	<rect x="9.2" y="14.2" class="st3" width="46.9" height="49"/>
	
		<linearGradient id="SVGID_1_" gradientUnits="userSpaceOnUse" x1="28.5016" y1="12.6761" x2="15.0396" y2="27.5614" gradientTransform="matrix(1 0 0 -1 0 41.8898)">
		<stop  offset="0" style="stop-color:#C319FF"/>
		<stop  offset="0.2769" style="stop-color:#B213FF;stop-opacity:0.7231"/>
		<stop  offset="0.8381" style="stop-color:#8005FF;stop-opacity:0.1619"/>
		<stop  offset="1" style="stop-color:#7000FF;stop-opacity:0"/>
	</linearGradient>
	<path class="st4" d="M33.6,7.8H8.9v26.8h24.7V7.8z"/>
	
		<linearGradient id="SVGID_2_" gradientUnits="userSpaceOnUse" x1="30.8868" y1="25.5225" x2="15.6538" y2="17.9356" gradientTransform="matrix(1 0 0 -1 0 41.8898)">
		<stop  offset="0" style="stop-color:#00CEFF"/>
		<stop  offset="1" style="stop-color:#00D5FF;stop-opacity:0"/>
	</linearGradient>
	<path class="st5" d="M33.6,7.8H8.9v26.8h24.7V7.8z"/>
	
		<radialGradient id="SVGID_3_" cx="-244.2626" cy="396.4276" r="1" gradientTransform="matrix(8.6964 0 0 -8.7985 2144.9573 3510.4937)" gradientUnits="userSpaceOnUse">
		<stop  offset="0" style="stop-color:#9D1EF8"/>
		<stop  offset="1" style="stop-color:#7000FF;stop-opacity:0"/>
	</radialGradient>
	<path class="st6" d="M31.6,6.2H9.7v31.3h21.8V6.2z"/>
	
		<linearGradient id="SVGID_4_" gradientUnits="userSpaceOnUse" x1="7.1674" y1="29.0177" x2="22.8046" y2="24.9236" gradientTransform="matrix(1 0 0 -1 0 41.8898)">
		<stop  offset="0" style="stop-color:#FFCD44"/>
		<stop  offset="0.5" style="stop-color:#FFCD44;stop-opacity:0.9"/>
		<stop  offset="1" style="stop-color:#FFCD44;stop-opacity:0"/>
	</linearGradient>
	<path class="st7" d="M3.3,30L1.9,11.2L24.5-5.3l8.4,19.7L20,39L3.3,30z"/>
</g>
</svg>
