<?xml version="1.0" encoding="utf-8"?>
<!-- Generator: Adobe Illustrator 25.2.3, SVG Export Plug-In . SVG Version: 6.00 Build 0)  -->
<svg version="1.1" id="Layer_1" xmlns="http://www.w3.org/2000/svg" xmlns:xlink="http://www.w3.org/1999/xlink" x="0px" y="0px"
	 viewBox="0 0 42 42" style="enable-background:new 0 0 42 42;" xml:space="preserve">
<style type="text/css">
	.st0{fill-rule:evenodd;clip-rule:evenodd;fill:#F39200;}
	.st1{fill:#FFFFFF;}
</style>
<path class="st0" d="M27.4,0c-11.8,0-1.2,0-12.9,0C2.9,0,0,2.9,0,14.6c0,6.6,0,1.2,0,12.9C0,39.1,2.9,42,14.6,42
	c11.8,0,1.2,0,12.9,0S42,39.1,42,27.4s0-1.2,0-12.9C42,2.9,39.1,0,27.4,0z"/>
<path class="st1" d="M20.4,8c2.5,0,4.9,0,7.4,0c0.4,0,0.7,0.1,1,0.4c0.3,0.3,0.6,0.7,0.8,1c0.2,0.3,0.4,0.5,0.7,0.8
	c0.3,0.3,0.5,0.6,0.8,0.9c0.4,0.4,0.7,0.8,1.1,1.2c0.3,0.4,0.7,0.8,1,1.2c0.2,0.2,0.4,0.5,0.6,0.7c0.2,0.3,0.3,0.6,0.2,1
	c0,0,0,0.1,0,0.1c0,0.4-0.1,0.8-0.1,1.1c0,0.4,0,0.8-0.1,1.2c-0.1,0.3-0.1,0.6-0.1,0.9c0,0.3-0.1,0.6-0.1,0.9
	c-0.1,0.6-0.1,1.1-0.1,1.7c0,0.3-0.1,0.6-0.1,0.8c0,0.3,0,0.5-0.1,0.8c0,0.4-0.1,0.7-0.1,1.1c-0.1,0.2-0.2,0.4-0.4,0.6
	c-0.4,0.4-0.8,0.8-1.2,1.2c-0.5,0.5-0.9,0.9-1.4,1.3c-0.4,0.4-0.8,0.8-1.3,1.2c-0.4,0.4-0.8,0.7-1.1,1.1c-0.4,0.3-0.7,0.7-1.1,1
	c-0.2,0.2-0.5,0.3-0.8,0.3c-2.1,0-4.2,0-6.3,0c-0.1,0-0.2,0-0.3,0.1c-0.3,0.3-0.6,0.6-1,0.9c-0.5,0.4-1,0.9-1.5,1.3
	c-0.2,0.2-0.3,0.3-0.5,0.5c-0.3,0.3-0.6,0.5-0.9,0.8c-0.4,0.3-0.7,0.6-1.1,1c-0.2,0.2-0.4,0.4-0.7,0.6c0,0-0.1,0-0.1,0
	c0,0,0-0.1,0-0.1c0-0.2,0-0.4,0-0.6c0-0.4,0.1-0.8,0.1-1.2c0,0,0,0,0,0c0-0.5,0.1-1,0.1-1.5c0-0.3,0-0.6,0.1-0.9
	c0.1-0.3,0.1-0.5,0.1-0.8c0-0.1,0-0.2-0.2-0.2c-0.9,0-1.8,0-2.7,0c-0.4,0-0.8-0.2-1-0.6C10,29.8,10,29.5,10,29.2c0-0.2,0-0.4,0-0.6
	c0-0.4,0.1-0.7,0.1-1.1c0-0.2,0-0.4,0.1-0.6c0-0.4,0.1-0.8,0.1-1.1c0-0.2,0-0.4,0.1-0.6c0-0.4,0.1-0.8,0.1-1.1
	c0-0.3,0.1-0.5,0.1-0.8c0.1-0.6,0.1-1.2,0.1-1.7c0-0.4,0.1-0.7,0.1-1.1c0,0,0,0,0,0c0-0.4,0.1-0.9,0.1-1.3c0-0.3,0-0.7,0.1-1
	c0.1-0.3,0-0.6,0.1-0.9c0-0.4,0.1-0.7,0.1-1c0,0,0,0,0,0c0-0.4,0.1-0.8,0.1-1.2c0-0.4,0.1-0.8,0.1-1.2c0-0.2,0-0.4,0.1-0.7
	c0-0.4,0.1-0.8,0.1-1.2c0,0,0-0.1,0-0.1c0-0.5,0.1-1,0.1-1.5c0-0.3,0.1-0.6,0.1-0.8c0-0.2,0-0.4,0.1-0.6c0.1-0.2,0.2-0.4,0.4-0.6
	C12.4,8.1,12.7,8,13,8C15.5,8,17.9,8,20.4,8z M20.1,26.4c0.5,0,0.9,0,1.4,0c0.9,0,1.9,0,2.8,0c0.3,0,0.6,0,0.8-0.2
	c0.2-0.2,0.5-0.4,0.7-0.7c0.5-0.4,0.9-0.9,1.4-1.4c0.5-0.5,1-0.9,1.5-1.4c0.3-0.2,0.4-0.5,0.4-0.9c0-0.1,0-0.2,0-0.3
	c0-0.3,0.1-0.7,0.1-1c0.1-0.6,0.1-1.1,0.1-1.7c0-0.3,0.1-0.6,0.1-0.8c0-0.4,0.1-0.7,0.1-1.1c0-0.3,0-0.6-0.2-0.9
	c-0.2-0.2-0.4-0.5-0.6-0.7c-0.3-0.3-0.6-0.6-0.8-0.9c-0.2-0.3-0.5-0.6-0.7-0.8c-0.2-0.2-0.4-0.5-0.6-0.7c-0.3-0.3-0.6-0.5-1-0.5
	c-2.9,0-5.8,0-8.7,0c-0.2,0-0.5,0-0.7,0.2c-0.2,0.2-0.4,0.4-0.4,0.6c-0.1,0.3-0.1,0.6-0.1,0.9c0,0.1,0,0.2,0,0.4
	c0,0.4-0.1,0.7-0.1,1c0,0.5-0.1,1-0.1,1.5c0,0,0,0,0,0c0,0.4-0.1,0.8-0.1,1.2c0,0.2,0,0.4,0,0.5c0,0.4-0.1,0.7-0.1,1.1
	c0,0.5-0.1,1-0.1,1.5c0,0,0,0,0,0c0,0.3-0.1,0.7-0.1,1c0,0.3-0.1,0.6-0.1,0.9c0,0.4-0.1,0.8-0.1,1.2c0,0.1,0,0.2,0,0.3
	c-0.1,0.4-0.1,0.7,0,1.1c0.1,0.3,0.3,0.5,0.6,0.6c0.2,0.1,0.4,0.1,0.5,0.1C17.3,26.4,18.7,26.4,20.1,26.4z"/>
<path class="st1" d="M21.7,21.1c-0.3,0-0.5,0-0.8,0c-0.3,0-0.4-0.1-0.4-0.4c0,0,0,0,0-0.1c0-0.1,0-0.2,0-0.3c0-0.5,0.1-1,0.1-1.5
	c0,0,0-0.1,0-0.1c0-0.5,0.1-0.9,0.1-1.4c0-0.2,0-0.5,0.1-0.7c0-0.4,0.1-0.8,0.1-1.2c0-0.3,0.2-0.4,0.5-0.4c0.5,0,1.1,0,1.6,0
	c0.3,0,0.5,0.3,0.4,0.7c0,0,0,0.1,0,0.1c0,0.5-0.1,0.9-0.1,1.4c0,0.4-0.1,0.8-0.1,1.2c0,0,0,0,0,0c0,0.4-0.1,0.9-0.1,1.3
	c0,0.3,0,0.6-0.1,1c0,0.1,0,0.2-0.1,0.3c-0.1,0.1-0.2,0.2-0.4,0.2C22.2,21.1,21.9,21.1,21.7,21.1z"/>
<path class="st1" d="M21.4,24.4c-0.2,0-0.5,0-0.7,0c-0.2,0-0.3-0.1-0.4-0.2c0,0-0.1-0.1-0.1-0.1c0-0.3,0-0.6,0.1-0.9
	c0-0.1,0-0.2,0-0.2c0-0.3,0.1-0.5,0.1-0.8c0-0.1,0.2-0.2,0.3-0.2c0.6,0,1.2,0,1.9,0c0.2,0,0.4,0.2,0.3,0.4c0,0.4-0.1,0.7-0.1,1.1
	c0,0.2,0,0.4,0,0.6c0,0.3-0.2,0.5-0.5,0.5C21.9,24.4,21.6,24.4,21.4,24.4z"/>
</svg>
