<svg width="42" height="42" viewBox="0 0 42 42" fill="none" xmlns="http://www.w3.org/2000/svg">
<path fill-rule="evenodd" clip-rule="evenodd" d="M27.3769 0C15.6126 0 26.1675 0 14.5131 0C2.85865 0 0 2.85864 0 14.623C0 21.2199 0 15.8325 0 27.4869C0 39.1414 2.85866 42 14.6231 42C26.3874 42 15.8325 42 27.4869 42C39.1413 42 42 39.1414 42 27.377C42 15.6126 42 26.1675 42 14.5131C42 2.85863 39.1413 0 27.3769 0Z" fill="#FF6666"/>
<path d="M30.6751 12.2044C28.9159 10.4453 26.717 9.23586 24.2981 8.79607C21.8793 8.35627 19.3505 8.57618 17.1515 9.45576C14.8426 10.4453 12.9735 11.9845 11.5442 14.0736C10.2248 16.1626 9.4552 18.4715 9.4552 21.0003C9.4552 23.4191 10.2248 25.838 11.5442 27.927C12.8636 30.016 14.8426 31.5552 17.1515 32.5448C19.4604 33.5343 21.8793 33.7542 24.2981 33.2044C26.717 32.7646 28.9159 31.5552 30.6751 29.7961L21.8793 21.0003L30.6751 12.2044Z" fill="white"/>
</svg>
