<?xml version="1.0" encoding="utf-8"?>
<!-- Generator: Adobe Illustrator 25.2.3, SVG Export Plug-In . SVG Version: 6.00 Build 0)  -->
<svg version="1.1" id="Layer_1" xmlns="http://www.w3.org/2000/svg" xmlns:xlink="http://www.w3.org/1999/xlink" x="0px" y="0px"
	 viewBox="0 0 42 42" style="enable-background:new 0 0 42 42;" xml:space="preserve">
<style type="text/css">
	.st0{fill-rule:evenodd;clip-rule:evenodd;fill:#FE6392;}
	.st1{fill-rule:evenodd;clip-rule:evenodd;fill:url(#SVGID_1_);}
	.st2{fill-rule:evenodd;clip-rule:evenodd;fill:#FFFFFF;}
</style>
<path class="st0" d="M27.4,0c-11.8,0-1.2,0-12.9,0C2.9,0,0,2.9,0,14.6c0,6.6,0,1.2,0,12.9C0,39.1,2.9,42,14.6,42
	c11.8,0,1.2,0,12.9,0S42,39.1,42,27.4s0-1.2,0-12.9C42,2.9,39.1,0,27.4,0z"/>
<linearGradient id="SVGID_1_" gradientUnits="userSpaceOnUse" x1="15.6001" y1="10.0898" x2="25.95" y2="30.79" gradientTransform="matrix(1 0 0 -1 0 41.8898)">
	<stop  offset="0" style="stop-color:#FFFFFF"/>
	<stop  offset="0.442" style="stop-color:#FFFFFF;stop-opacity:0.618"/>
	<stop  offset="0.721" style="stop-color:#FFFFFF;stop-opacity:0.359"/>
	<stop  offset="1" style="stop-color:#FFFFFF;stop-opacity:0"/>
</linearGradient>
<path class="st1" d="M11.5,11.5c1.3-1.3,2.7-2.3,4.4-2.9c1.6-0.7,3.4-1,5.2-1c1.8,0,3.5,0.3,5.2,1c1.6,0.7,3.1,1.7,4.4,2.9
	c1.3,1.3,2.3,2.7,2.9,4.4c0.7,1.6,1,3.4,1,5.2c0,1.8-0.3,3.5-1,5.2c-0.7,1.6-1.7,3.1-2.9,4.4c-1.3,1.3-2.7,2.3-4.4,2.9
	c-1.6,0.7-3.4,1-5.2,1c-1.8,0-3.5-0.3-5.2-1c-1.6-0.7-3.1-1.7-4.4-2.9c-1.3-1.3-2.3-2.7-2.9-4.4c-0.7-1.6-1-3.4-1-5.2
	c0-1.8,0.3-3.5,1-5.2C9.2,14.2,10.2,12.7,11.5,11.5z M21,9.7c-1.5,0-2.9,0.3-4.3,0.9C15.3,11.2,14.1,12,13,13c-1,1-1.9,2.3-2.4,3.6
	C10,18.1,9.7,19.5,9.7,21c0,1.5,0.3,2.9,0.9,4.3c0.6,1.4,1.4,2.6,2.4,3.6c1,1,2.3,1.9,3.6,2.4c1.4,0.6,2.8,0.9,4.3,0.9
	c1.5,0,2.9-0.3,4.3-0.9S27.9,30,29,29c1-1,1.9-2.3,2.4-3.6s0.9-2.8,0.9-4.3c0-1.5-0.3-2.9-0.9-4.3C30.8,15.3,30,14.1,29,13
	c-1-1-2.3-1.9-3.6-2.4C23.9,10,22.5,9.7,21,9.7L21,9.7z"/>
<path class="st2" d="M19.9,8.6c0-0.1,0-0.3,0.1-0.4c0.1-0.1,0.1-0.3,0.2-0.4c0.1-0.1,0.2-0.2,0.4-0.2c0.1-0.1,0.3-0.1,0.4-0.1
	c1.8,0,3.5,0.3,5.2,1c1.6,0.7,3.1,1.7,4.4,2.9c1.3,1.3,2.3,2.7,2.9,4.4c0.7,1.6,1,3.4,1,5.2c0,1.8-0.3,3.5-1,5.2
	c-0.7,1.6-1.7,3.1-2.9,4.4c-1.3,1.3-2.7,2.3-4.4,2.9c-1.6,0.7-3.4,1-5.2,1c-1.8,0-3.5-0.3-5.2-1c-1.6-0.7-3.1-1.7-4.4-2.9
	c-0.1-0.1-0.2-0.2-0.2-0.4c-0.1-0.1-0.1-0.3-0.1-0.4s0-0.3,0.1-0.4c0.1-0.1,0.1-0.3,0.2-0.4c0.1-0.1,0.2-0.2,0.4-0.2
	c0.1-0.1,0.3-0.1,0.4-0.1c0.1,0,0.3,0,0.4,0.1c0.1,0.1,0.3,0.1,0.4,0.2c1,1,2.3,1.9,3.6,2.4c1.4,0.6,2.8,0.9,4.3,0.9
	c1.5,0,2.9-0.3,4.3-0.9c1.4-0.6,2.6-1.4,3.6-2.4c1-1,1.9-2.3,2.4-3.6c0.6-1.4,0.9-2.8,0.9-4.3c0-1.5-0.3-2.9-0.9-4.3
	C30.8,15.3,30,14.1,29,13c-1-1-2.3-1.9-3.6-2.4C23.9,10,22.5,9.7,21,9.7c-0.3,0-0.6-0.1-0.8-0.3C20,9.2,19.9,8.9,19.9,8.6z"/>
<path class="st2" d="M18.4,17.6c-1.3,0-2.4,1.1-2.4,2.4v0l0,0.2c0,0.7,0.2,1.2,0.7,1.8c0.5,0.6,1.3,1.4,2.7,2.4l0,0l1.6,1.3l0,0l0,0
	l0,0c0,0,0,0,0,0c0,0,0,0,0,0l0,0l1.6-1.3l0,0c1.4-1.1,2.2-1.8,2.7-2.4c0.5-0.6,0.7-1.1,0.7-1.8l0-0.2v0c0-1.3-1.1-2.4-2.4-2.4
	c-0.7,0-1.3,0.3-1.8,0.8l0,0c-0.1,0.1-0.2,0.2-0.4,0.3c-0.1,0.1-0.3,0.1-0.4,0.1c-0.2,0-0.3,0-0.4-0.1c-0.1-0.1-0.3-0.1-0.4-0.3l0,0
	C19.6,17.9,19,17.6,18.4,17.6z M21,16.2c-0.8-0.5-1.7-0.8-2.6-0.8c-2.6,0-4.7,2.1-4.7,4.7v0l0,0l0,0.2v0l0,0v0
	c0,1.2,0.4,2.2,1.2,3.2c0.7,0.9,1.7,1.7,3.1,2.8l0,0l1.6,1.3l0,0c0.4,0.3,0.9,0.5,1.4,0.5s1-0.2,1.4-0.5l0,0l1.6-1.3l0,0l0,0
	c1.4-1.1,2.4-1.9,3.1-2.8c0.8-1,1.2-2,1.2-3.2v0c0,0,0,0,0,0v0l0-0.2v0l0,0v0c0-2.6-2.1-4.7-4.7-4.7C22.7,15.4,21.8,15.6,21,16.2z"
	/>
</svg>
