<?xml version="1.0" encoding="utf-8"?>
<!-- Generator: Adobe Illustrator 25.2.3, SVG Export Plug-In . SVG Version: 6.00 Build 0)  -->
<svg version="1.1" id="Layer_1" xmlns="http://www.w3.org/2000/svg" xmlns:xlink="http://www.w3.org/1999/xlink" x="0px" y="0px"
	 viewBox="0 0 42 42" style="enable-background:new 0 0 42 42;" xml:space="preserve">
<style type="text/css">
	.st0{fill-rule:evenodd;clip-rule:evenodd;fill:#005FF9;}
	.st1{fill:#FF9E00;}
</style>
<path class="st0" d="M27.5,0c-11.7,0-1.2,0-12.8,0C2.9,0,0,2.9,0,14.7c0,6.6,0,1.2,0,12.8S2.9,42,14.6,42s1.2,0,12.8,0
	s14.5-2.9,14.5-14.6s0-1.2,0-12.8C42,2.9,39.2,0,27.5,0z"/>
<path class="st1" d="M24.6,21c0,2-1.6,3.6-3.6,3.6S17.4,23,17.4,21s1.6-3.6,3.6-3.6S24.6,19,24.6,21z M21,9C14.4,9,9,14.4,9,21
	s5.4,12,12,12c2.4,0,4.8-0.7,6.8-2.1l0,0L26.2,29h0c-1.5,1-3.3,1.5-5.1,1.5c-5.3,0-9.5-4.3-9.5-9.5s4.3-9.5,9.5-9.5
	c5.3,0,9.5,4.3,9.5,9.5c0,0.7-0.1,1.4-0.2,2c-0.3,1.2-1.2,1.6-1.8,1.6c-0.7-0.1-1.4-0.5-1.4-1.7v-0.9V21c0-3.3-2.7-6.1-6.1-6.1
	c-3.4,0-6.1,2.7-6.1,6.1S17.7,27,21,27c1.6,0,3.2-0.6,4.3-1.8c0.7,1,1.8,1.7,3,1.8c0.1,0,0.2,0,0.3,0c0.9,0,1.7-0.3,2.4-0.8
	c0.7-0.5,1.3-1.3,1.6-2.3c0.1-0.2,0.1-0.5,0.1-0.5c0.2-0.8,0.2-1.5,0.2-2.4C33,14.4,27.6,9,21,9z"/>
</svg>
