<?xml version="1.0" encoding="UTF-8" standalone="no"?>
<svg
   xmlns:dc="http://purl.org/dc/elements/1.1/"
   xmlns:cc="http://creativecommons.org/ns#"
   xmlns:rdf="http://www.w3.org/1999/02/22-rdf-syntax-ns#"
   xmlns:svg="http://www.w3.org/2000/svg"
   xmlns="http://www.w3.org/2000/svg"
   xmlns:sodipodi="http://sodipodi.sourceforge.net/DTD/sodipodi-0.dtd"
   xmlns:inkscape="http://www.inkscape.org/namespaces/inkscape"
   version="1.1"
   id="svg2"
   xml:space="preserve"
   width="529.1333"
   height="438.42401"
   viewBox="0 0 529.1333 438.42401"
   sodipodi:docname="MYGAMES PORTRAIT LOGO BLACK RGB.ai"><metadata
     id="metadata8"><rdf:RDF><cc:Work
         rdf:about=""><dc:format>image/svg+xml</dc:format><dc:type
           rdf:resource="http://purl.org/dc/dcmitype/StillImage" /></cc:Work></rdf:RDF></metadata><defs
     id="defs6"><clipPath
       clipPathUnits="userSpaceOnUse"
       id="clipPath26"><path
         d="M 0,328.818 H 396.85 V 0 H 0 Z"
         id="path24" /></clipPath></defs><sodipodi:namedview
     pagecolor="#ffffff"
     bordercolor="#666666"
     borderopacity="1"
     objecttolerance="10"
     gridtolerance="10"
     guidetolerance="10"
     inkscape:pageopacity="0"
     inkscape:pageshadow="2"
     inkscape:window-width="640"
     inkscape:window-height="480"
     id="namedview4" /><g
     id="g10"
     inkscape:groupmode="layer"
     inkscape:label="MYGAMES PORTRAIT LOGO BLACK RGB"
     transform="matrix(1.3333333,0,0,-1.3333333,0,438.424)"><g
       id="g12"
       transform="translate(88.0993,155.5961)"><path
         d="M 0,0 -31.406,34.941 41.875,116.47 83.016,70.698 124.21,116.529 172.335,62.987 220.4,116.463 252.059,81.243 130.903,-53.55 99.246,-18.33 140.628,27.711 124.012,46.246 82.608,0.181 41.386,46.042 Z"
         style="fill:#000000;fill-opacity:1;fill-rule:nonzero;stroke:none"
         id="path14" /></g><g
       id="g16"
       transform="translate(133.2995,90.4647)"><path
         d="M 0,0 -10.012,-14.851 -20.499,0 h -7.463 l 14.681,-20.705 v -12.58 h 6.363 V -20.7 L 7.356,0 Z"
         style="fill:#000000;fill-opacity:1;fill-rule:nonzero;stroke:none"
         id="path18" /></g><g
       id="g20"><g
         id="g22"
         clip-path="url(#clipPath26)"><g
           id="g28"
           transform="translate(168.1838,76.0057)"><path
             d="m 0,0 v -5.828 h 10.857 v -6.452 c -2.376,-0.706 -5.251,-1.109 -7.967,-1.109 -8.343,0 -13.324,4.144 -13.324,11.084 0,6.629 5.355,11.082 13.324,11.082 3.8,0 7.76,-0.824 11.45,-2.386 l 0.588,-0.248 1.963,5.52 -0.529,0.219 c -4.531,1.871 -9.211,2.82 -13.91,2.82 -11.659,0 -19.492,-6.952 -19.492,-17.3 0,-10.466 7.359,-16.715 19.686,-16.715 4.863,0 10.448,1.15 14.229,2.929 l 0.345,0.163 V 0 Z"
             style="fill:#000000;fill-opacity:1;fill-rule:nonzero;stroke:none"
             id="path30" /></g><g
           id="g32"
           transform="translate(283.3122,63.0067)"><path
             d="m 0,0 v 8.146 h 16.066 v 5.827 H 0 v 7.658 h 17.722 v 5.827 H -6.363 V -5.827 H 18.014 V 0 Z"
             style="fill:#000000;fill-opacity:1;fill-rule:nonzero;stroke:none"
             id="path34" /></g><g
           id="g36"
           transform="translate(320.3982,76.8524)"><path
             d="m 0,0 c -4.959,0.702 -7.971,1.329 -7.971,4.103 0,2.432 2.496,3.828 6.848,3.828 4.573,0 8.519,-1.726 10.005,-2.468 l 0.542,-0.272 2.508,5.139 -0.484,0.28 c -3.5,2.033 -8.327,3.245 -12.912,3.245 -8.211,0 -13.113,-3.755 -13.113,-10.044 0,-3.031 1.036,-5.26 3.168,-6.816 2.616,-1.906 6.425,-2.44 9.786,-2.912 4.768,-0.669 7.689,-1.211 7.689,-3.808 0,-4.07 -5.742,-4.51 -8.211,-4.51 -3.696,0 -7.113,0.937 -10.156,2.786 l -0.53,0.321 -2.919,-5.168 0.471,-0.308 c 2.47,-1.622 6.747,-3.555 13.085,-3.555 9.032,0 14.867,4.191 14.867,10.679 C 12.673,-1.795 5.646,-0.8 0,0"
             style="fill:#000000;fill-opacity:1;fill-rule:nonzero;stroke:none"
             id="path38" /></g><g
           id="g40"
           transform="translate(70.4279,57.1796)"><path
             d="M 0,0 6.465,18.395 17.382,0.116 28.3,18.395 34.764,0 h 6.649 L 29.791,33.498 17.382,12.651 4.974,33.498 -6.648,0 Z"
             style="fill:#000000;fill-opacity:1;fill-rule:nonzero;stroke:none"
             id="path42" /></g><g
           id="g44"
           transform="translate(205.9841,77.205)"><path
             d="m 0,0 4.931,-8.837 h -9.848 z m -11.174,-20.026 3.423,6.113 15.507,0.011 3.416,-6.124 h 7.202 L 0,13.473 -18.377,-20.026 Z"
             style="fill:#000000;fill-opacity:1;fill-rule:nonzero;stroke:none"
             id="path46" /></g><g
           id="g48"
           transform="translate(232.528,57.1796)"><path
             d="M 0,0 6.464,18.93 17.381,0.116 28.299,18.93 34.764,0 h 6.648 L 29.79,33.498 17.381,12.651 4.974,33.498 -6.648,0 Z"
             style="fill:#000000;fill-opacity:1;fill-rule:nonzero;stroke:none"
             id="path50" /></g><g
           id="g52"
           transform="translate(146.3786,62.3778)"><path
             d="M 0,0 -5.685,-5.685 -11.371,0 -5.685,5.685 Z"
             style="fill:#000000;fill-opacity:1;fill-rule:nonzero;stroke:none"
             id="path54" /></g><g
           id="g56"
           transform="translate(298.6823,160.4125)"><path
             d="M 0,0 C -0.208,-0.083 -0.521,-0.125 -0.938,-0.125 H -1.83 v 2.027 h 0.843 c 0.548,0 0.945,-0.069 1.193,-0.208 C 0.455,1.556 0.579,1.282 0.579,0.875 0.579,0.444 0.386,0.153 0,0 m 1.461,-2.659 c -0.009,0.148 -0.014,0.286 -0.014,0.416 v 0.41 c 0,0.281 -0.102,0.57 -0.304,0.866 -0.203,0.296 -0.523,0.478 -0.96,0.548 0.345,0.055 0.615,0.146 0.807,0.271 0.365,0.236 0.547,0.605 0.547,1.105 0,0.705 -0.289,1.176 -0.867,1.418 -0.325,0.134 -0.834,0.201 -1.528,0.201 H -2.816 V -3.02 h 0.986 v 2.201 h 0.777 c 0.523,0 0.889,-0.06 1.097,-0.18 0.352,-0.208 0.528,-0.634 0.528,-1.28 v -0.443 l 0.021,-0.18 C 0.599,-2.925 0.603,-2.946 0.607,-2.964 0.611,-2.983 0.615,-3.001 0.62,-3.02 H 1.544 L 1.509,-2.951 C 1.485,-2.904 1.47,-2.807 1.461,-2.659 M -0.761,-4.65 c -2.423,0 -4.393,1.971 -4.393,4.394 0,2.423 1.97,4.394 4.393,4.394 2.422,0 4.394,-1.971 4.394,-4.394 0,-2.423 -1.972,-4.394 -4.394,-4.394 m 0,9.496 c -2.818,0 -5.102,-2.284 -5.102,-5.102 0,-2.818 2.284,-5.102 5.102,-5.102 2.818,0 5.102,2.284 5.102,5.102 0,2.818 -2.284,5.102 -5.102,5.102"
             style="fill:#000000;fill-opacity:1;fill-rule:nonzero;stroke:none"
             id="path58" /></g></g></g></g></svg>
