<?xml version="1.0" encoding="utf-8"?>
<!-- Generator: Adobe Illustrator 25.2.3, SVG Export Plug-In . SVG Version: 6.00 Build 0)  -->
<svg version="1.1" id="Layer_1" xmlns="http://www.w3.org/2000/svg" xmlns:xlink="http://www.w3.org/1999/xlink" x="0px" y="0px"
	 viewBox="0 0 42 42" style="enable-background:new 0 0 42 42;" xml:space="preserve">
<style type="text/css">
	.st0{fill-rule:evenodd;clip-rule:evenodd;fill:#005FF9;}
	.st1{fill:#FFFFFF;}
	.st2{fill:#FF9E00;}
	.st3{fill:#00103D;fill-opacity:0.2;}
	.st4{fill:#2C2D2E;}
	.st5{fill-rule:evenodd;clip-rule:evenodd;fill:#FFFFFF;}
</style>
<path class="st0" d="M27.4,0c-11.8,0-1.2,0-12.9,0C2.9,0,0,2.9,0,14.6c0,6.6,0,1.2,0,12.9C0,39.1,2.9,42,14.6,42
	c11.8,0,1.2,0,12.9,0S42,39.1,42,27.4s0-1.2,0-12.9C42,2.9,39.1,0,27.4,0z"/>
<path class="st1" d="M14.5,9h13.4c3,0,5.5,2.5,5.5,5.5v13.4c0,3-2.5,5.5-5.5,5.5H14.5c-3,0-5.5-2.5-5.5-5.5V14.5
	C9,11.5,11.5,9,14.5,9z"/>
<path class="st2" d="M13.7,12.1h14.1c0.9,0,1.6,0.7,1.6,1.6l0,0c0,0.9-0.7,1.6-1.6,1.6H13.7c-0.9,0-1.6-0.7-1.6-1.6l0,0
	C12.1,12.8,12.8,12.1,13.7,12.1z"/>
<path class="st3" d="M12.9,25.1h6.3c0.4,0,0.8,0.4,0.8,0.8v0c0,0.4-0.4,0.8-0.8,0.8h-6.3c-0.4,0-0.8-0.4-0.8-0.8v0
	C12.1,25.4,12.5,25.1,12.9,25.1z"/>
<path class="st3" d="M12.9,27.8h6.3c0.4,0,0.8,0.4,0.8,0.8v0c0,0.4-0.4,0.8-0.8,0.8h-6.3c-0.4,0-0.8-0.4-0.8-0.8v0
	C12.1,28.2,12.5,27.8,12.9,27.8z"/>
<path class="st3" d="M22.3,25.1h6.3c0.4,0,0.8,0.4,0.8,0.8v0c0,0.4-0.4,0.8-0.8,0.8h-6.3c-0.4,0-0.8-0.4-0.8-0.8v0
	C21.6,25.4,21.9,25.1,22.3,25.1z"/>
<path class="st3" d="M22.3,27.8h6.3c0.4,0,0.8,0.4,0.8,0.8v0c0,0.4-0.4,0.8-0.8,0.8h-6.3c-0.4,0-0.8-0.4-0.8-0.8v0
	C21.6,28.2,21.9,27.8,22.3,27.8z"/>
<path class="st4" d="M13.7,16.5h14.1c0.9,0,1.6,0.7,1.6,1.6v4.3c0,0.9-0.7,1.6-1.6,1.6H13.7c-0.9,0-1.6-0.7-1.6-1.6V18
	C12.1,17.2,12.8,16.5,13.7,16.5z"/>
<path class="st5" d="M20.8,20.8c0.8,0,1.4-0.6,1.4-1.4c0-0.8-0.6-1.4-1.4-1.4s-1.4,0.6-1.4,1.4C19.4,20.2,20,20.8,20.8,20.8z
	 M20.8,21.7c-1.5,0-2.8,1-3.2,2.3h6.3C23.6,22.7,22.3,21.7,20.8,21.7z"/>
</svg>
