<svg width="80" height="80" viewBox="0 0 80 80" fill="none" xmlns="http://www.w3.org/2000/svg">
<rect width="80" height="80" rx="18" fill="#FF8800"/>
<path fill-rule="evenodd" clip-rule="evenodd" d="M79.9983 40C79.9993 39.9077 80 39.815 80 39.7223C80 8.6111 70.5497 0 40.253 0C40.1683 0 40.084 0.000493497 40 0.00147773C39.916 0.000493497 39.8317 0 39.747 0C9.45037 0 0 8.6111 0 39.7223C0 39.815 0.00057048 39.9077 0.00170804 40C0.00057048 40.0923 0 40.185 0 40.2777C0 71.389 9.45037 80 39.747 80C39.8317 80 39.916 79.9997 40 79.9987C40.084 79.9997 40.1683 80 40.253 80C70.5497 80 80 71.389 80 40.2777C80 40.185 79.9993 40.0923 79.9983 40Z" fill="#FF8800"/>
<path d="M40.0773 40.7887C46.7507 40.7887 52.1907 35.3487 52.1907 28.6756C52.1907 22.0025 46.7507 16.5625 40.0773 16.5625C33.3318 16.5625 27.8918 22.0025 27.8918 28.6756C27.8918 35.3487 33.3318 40.7887 40.0773 40.7887ZM40.0773 23.6708C42.8337 23.6708 45.0823 25.9194 45.0823 28.6756C45.0823 31.4319 42.8337 33.6803 40.0773 33.6803C37.3213 33.6803 35.0727 31.4319 35.0727 28.6756C35 25.9194 37.2487 23.6708 40.0773 23.6708Z" fill="white"/>
<path d="M44.9373 50.7261C47.4033 50.1458 49.797 49.2028 51.973 47.8248C53.6413 46.8091 54.149 44.5608 53.061 42.8924C52.0457 41.2241 49.797 40.7164 48.1287 41.8044C43.1963 44.9234 36.741 44.9234 31.8087 41.8044C30.1404 40.7891 27.9644 41.2241 26.8764 42.8924C25.9335 44.5608 26.4412 46.7368 28.1095 47.7521C30.2855 49.1304 32.6791 50.0731 35.1453 50.6534L28.3996 57.3991C27.0215 58.7774 27.0215 61.0258 28.3996 62.4041C29.125 63.1294 29.9954 63.4194 30.9383 63.4194C31.8812 63.4194 32.7516 63.0568 33.477 62.4041L40.15 55.7308L46.8233 62.4041C48.2013 63.7821 50.45 63.7821 51.828 62.4041C53.206 61.0258 53.206 58.7774 51.828 57.3991L44.9373 50.7261Z" fill="white"/>
</svg>
