<?xml version="1.0" encoding="utf-8"?>
<!-- Generator: Adobe Illustrator 25.2.3, SVG Export Plug-In . SVG Version: 6.00 Build 0)  -->
<svg version="1.1" id="Layer_1" xmlns="http://www.w3.org/2000/svg" xmlns:xlink="http://www.w3.org/1999/xlink" x="0px" y="0px"
	 viewBox="0 0 42 42" style="enable-background:new 0 0 42 42;" xml:space="preserve">
<style type="text/css">
	.st0{fill-rule:evenodd;clip-rule:evenodd;fill:#FF3B65;}
	.st1{fill:#FFFFFF;}
</style>
<path class="st0" d="M27.4,0c-11.8,0-1.2,0-12.9,0C2.9,0,0,2.9,0,14.6c0,6.6,0,1.2,0,12.9C0,39.1,2.9,42,14.6,42
	c11.8,0,1.2,0,12.9,0S42,39.1,42,27.4s0-1.2,0-12.9C42,2.9,39.1,0,27.4,0z"/>
<path class="st1" d="M13.2,22.5c-1.7,0-3.4,0-5.2,0c0.1-0.8,0.1-1.6,0.2-2.3c0.9-5,4.8-9.1,10-10C25,9,31.5,13.3,32.8,20
	c0.6,3.2,0,6.2-2.2,8.6c-2,2.3-4.6,3.4-7.6,3.4c-4.5-0.1-8.3-3.1-9.4-7.5C13.4,23.8,13.3,23.2,13.2,22.5z M27.7,22.4
	c0-2.6-2-4.7-4.7-4.7c-2.6,0-4.7,2.1-4.7,4.8c0,2.4,2.2,4.5,4.7,4.5C25.7,27,27.8,25,27.7,22.4z"/>
</svg>
