<?xml version="1.0" encoding="utf-8"?>
<!-- Generator: Adobe Illustrator 25.2.3, SVG Export Plug-In . SVG Version: 6.00 Build 0)  -->
<svg version="1.1" id="Layer_1" xmlns="http://www.w3.org/2000/svg" xmlns:xlink="http://www.w3.org/1999/xlink" x="0px" y="0px"
	 viewBox="0 0 42 42" style="enable-background:new 0 0 42 42;" xml:space="preserve">
<style type="text/css">
	.st0{fill-rule:evenodd;clip-rule:evenodd;fill:#005FF9;}
	.st1{opacity:0.6;}
	.st2{fill-rule:evenodd;clip-rule:evenodd;fill:#FFFFFF;}
	.st3{fill-rule:evenodd;clip-rule:evenodd;fill:url(#SVGID_1_);}
	.st4{fill-rule:evenodd;clip-rule:evenodd;fill:#FFFFFF;fill-opacity:0.47;}
	.st5{fill-rule:evenodd;clip-rule:evenodd;fill:url(#SVGID_2_);}
</style>
<path class="st0" d="M27.4,0c-11.8,0-1.2,0-12.9,0C2.9,0,0,2.9,0,14.6c0,6.6,0,1.2,0,12.9C0,39.1,2.9,42,14.6,42
	c11.8,0,1.2,0,12.9,0S42,39.1,42,27.4s0-1.2,0-12.9C42,2.9,39.1,0,27.4,0z"/>
<g class="st1">
	<path class="st2" d="M29.4,14.9c-0.9-0.9-2.2-0.9-3.1,0l-7.4,7.4L16,19.3c-0.9-0.9-2.2-0.9-3.1,0c-0.9,0.9-0.9,2.2,0,3.1l4.5,4.5
		c0.4,0.4,0.9,0.7,1.6,0.7c0.7,0,1.1-0.2,1.6-0.7l8.9-8.9C30.3,17.1,30.3,15.8,29.4,14.9L29.4,14.9z"/>
	
		<linearGradient id="SVGID_1_" gradientUnits="userSpaceOnUse" x1="21.1046" y1="69.6849" x2="21.1046" y2="56.2916" gradientTransform="matrix(1 0 0 -1 0 83.8898)">
		<stop  offset="0" style="stop-color:#2144FE;stop-opacity:0.13"/>
		<stop  offset="1" style="stop-color:#2144FE;stop-opacity:0.24"/>
	</linearGradient>
	<path class="st3" d="M29.4,14.9c-0.9-0.9-2.2-0.9-3.1,0l-7.4,7.4L16,19.3c-0.9-0.9-2.2-0.9-3.1,0c-0.9,0.9-0.9,2.2,0,3.1l4.5,4.5
		c0.4,0.4,0.9,0.7,1.6,0.7c0.7,0,1.1-0.2,1.6-0.7l8.9-8.9C30.3,17.1,30.3,15.8,29.4,14.9L29.4,14.9z"/>
	<path class="st4" d="M29.4,14.9c-0.9-0.9-2.2-0.9-3.1,0l-7.4,7.4L16,19.3c-0.9-0.9-2.2-0.9-3.1,0c-0.9,0.9-0.9,2.2,0,3.1l4.5,4.5
		c0.4,0.4,0.9,0.7,1.6,0.7c0.7,0,1.1-0.2,1.6-0.7l8.9-8.9C30.3,17.1,30.3,15.8,29.4,14.9L29.4,14.9z"/>
</g>
<g>
	<path class="st2" d="M29.4,14.9c-0.9-0.9-2.2-0.9-3.1,0l-7.4,7.4L16,19.3c-0.9-0.9-2.2-0.9-3.1,0c-0.9,0.9-0.9,2.2,0,3.1l4.5,4.5
		c0.4,0.4,0.9,0.7,1.6,0.7c0.7,0,1.1-0.2,1.6-0.7l8.9-8.9C30.3,17.1,30.3,15.8,29.4,14.9L29.4,14.9z"/>
	
		<linearGradient id="SVGID_2_" gradientUnits="userSpaceOnUse" x1="21.1046" y1="69.6849" x2="21.1046" y2="56.2916" gradientTransform="matrix(1 0 0 -1 0 83.8898)">
		<stop  offset="0" style="stop-color:#2144FE;stop-opacity:0.13"/>
		<stop  offset="1" style="stop-color:#2144FE;stop-opacity:0.24"/>
	</linearGradient>
	<path class="st5" d="M29.4,14.9c-0.9-0.9-2.2-0.9-3.1,0l-7.4,7.4L16,19.3c-0.9-0.9-2.2-0.9-3.1,0c-0.9,0.9-0.9,2.2,0,3.1l4.5,4.5
		c0.4,0.4,0.9,0.7,1.6,0.7c0.7,0,1.1-0.2,1.6-0.7l8.9-8.9C30.3,17.1,30.3,15.8,29.4,14.9L29.4,14.9z"/>
	<path class="st4" d="M29.4,14.9c-0.9-0.9-2.2-0.9-3.1,0l-7.4,7.4L16,19.3c-0.9-0.9-2.2-0.9-3.1,0c-0.9,0.9-0.9,2.2,0,3.1l4.5,4.5
		c0.4,0.4,0.9,0.7,1.6,0.7c0.7,0,1.1-0.2,1.6-0.7l8.9-8.9C30.3,17.1,30.3,15.8,29.4,14.9L29.4,14.9z"/>
</g>
</svg>
