<?xml version="1.0" encoding="utf-8"?>
<!-- Generator: Adobe Illustrator 25.2.3, SVG Export Plug-In . SVG Version: 6.00 Build 0)  -->
<svg version="1.1" id="Layer_1" xmlns="http://www.w3.org/2000/svg" xmlns:xlink="http://www.w3.org/1999/xlink" x="0px" y="0px"
	 viewBox="0 0 42 42" style="enable-background:new 0 0 42 42;" xml:space="preserve">
<style type="text/css">
	.st0{fill-rule:evenodd;clip-rule:evenodd;fill:#1CC585;}
	.st1{fill-rule:evenodd;clip-rule:evenodd;fill:#FFFFFF;}
	.st2{fill-rule:evenodd;clip-rule:evenodd;fill:url(#SVGID_1_);}
	.st3{fill-rule:evenodd;clip-rule:evenodd;fill:#FFFFFF;fill-opacity:0.88;}
</style>
<path class="st0" d="M27.4,0c-11.8,0-1.2,0-12.9,0C2.9,0,0,2.9,0,14.6c0,6.6,0,1.2,0,12.9C0,39.1,2.9,42,14.6,42
	c11.8,0,1.2,0,12.9,0S42,39.1,42,27.4s0-1.2,0-12.9C42,2.9,39.1,0,27.4,0z"/>
<g>
	<path class="st1" d="M21.7,29.5h-7.4c-2.4,0-4.4-2-4.4-4.4v-8.8c0-2.4,2-4.4,4.4-4.4h7.4c2.4,0,4.4,2,4.4,4.4v1.4l4.9-4
		c0.3-0.2,0.6-0.3,0.9-0.3c0.8,0,1.5,0.7,1.5,1.5v11.8c0,0.8-0.7,1.5-1.5,1.5c-0.4,0-0.7-0.1-1-0.4l-4.9-4v1.4
		C26.1,27.5,24.1,29.5,21.7,29.5z M14.3,23.6c0.8,0,1.5,0.7,1.5,1.5c0,0.8-0.7,1.5-1.5,1.5c-0.8,0-1.5-0.7-1.5-1.5
		C12.9,24.3,13.5,23.6,14.3,23.6z"/>
	
		<linearGradient id="SVGID_1_" gradientUnits="userSpaceOnUse" x1="21.7" y1="30.0185" x2="21.7" y2="12.3638" gradientTransform="matrix(1 0 0 -1 0 41.8898)">
		<stop  offset="0" style="stop-color:#2144FE;stop-opacity:0.13"/>
		<stop  offset="1" style="stop-color:#2144FE;stop-opacity:0.24"/>
	</linearGradient>
	<path class="st2" d="M21.7,29.5h-7.4c-2.4,0-4.4-2-4.4-4.4v-8.8c0-2.4,2-4.4,4.4-4.4h7.4c2.4,0,4.4,2,4.4,4.4v1.4l4.9-4
		c0.3-0.2,0.6-0.3,0.9-0.3c0.8,0,1.5,0.7,1.5,1.5v11.8c0,0.8-0.7,1.5-1.5,1.5c-0.4,0-0.7-0.1-1-0.4l-4.9-4v1.4
		C26.1,27.5,24.1,29.5,21.7,29.5z M14.3,23.6c0.8,0,1.5,0.7,1.5,1.5c0,0.8-0.7,1.5-1.5,1.5c-0.8,0-1.5-0.7-1.5-1.5
		C12.9,24.3,13.5,23.6,14.3,23.6z"/>
	<path class="st3" d="M21.7,29.5h-7.4c-2.4,0-4.4-2-4.4-4.4v-8.8c0-2.4,2-4.4,4.4-4.4h7.4c2.4,0,4.4,2,4.4,4.4v1.4l4.9-4
		c0.3-0.2,0.6-0.3,0.9-0.3c0.8,0,1.5,0.7,1.5,1.5v11.8c0,0.8-0.7,1.5-1.5,1.5c-0.4,0-0.7-0.1-1-0.4l-4.9-4v1.4
		C26.1,27.5,24.1,29.5,21.7,29.5z M14.3,23.6c0.8,0,1.5,0.7,1.5,1.5c0,0.8-0.7,1.5-1.5,1.5c-0.8,0-1.5-0.7-1.5-1.5
		C12.9,24.3,13.5,23.6,14.3,23.6z"/>
</g>
</svg>
