<?xml version="1.0" encoding="utf-8"?>
<!-- Generator: Adobe Illustrator 25.2.3, SVG Export Plug-In . SVG Version: 6.00 Build 0)  -->
<svg version="1.1" id="Layer_1" xmlns="http://www.w3.org/2000/svg" xmlns:xlink="http://www.w3.org/1999/xlink" x="0px" y="0px"
	 viewBox="0 0 42 42" style="enable-background:new 0 0 42 42;" xml:space="preserve">
<style type="text/css">
	.st0{fill-rule:evenodd;clip-rule:evenodd;fill:#2787F5;}
	.st1{fill:#FFFFFF;}
</style>
<path class="st0" d="M27.4,0c-11.8,0-1.2,0-12.9,0C2.9,0,0,2.9,0,14.6c0,6.6,0,1.2,0,12.9C0,39.1,2.9,42,14.6,42
	c11.8,0,1.2,0,12.9,0S42,39.1,42,27.4s0-1.2,0-12.9C42,2.9,39.1,0,27.4,0z"/>
<path class="st1" d="M34.1,29.8H31c-1.2,0-1.5-0.9-3.6-3c-1.9-1.8-2.6-2-3.1-2c-0.7,0-0.8,0.2-0.8,1.1v2.7c0,0.8-0.2,1.2-2.2,1.2
	c-3.3,0-6.8-2-9.3-5.6C8.1,19,7.1,15,7.1,14.2c0-0.4,0.2-0.9,1.1-0.9h3.1c0.8,0,1.1,0.3,1.3,1.2c1.5,4.4,4.1,8.1,5.1,8.1
	c0.4,0,0.5-0.2,0.5-1.2v-4.5c-0.1-2.1-1.2-2.2-1.2-3c0-0.3,0.3-0.7,0.8-0.7h4.8c0.7,0,0.9,0.3,0.9,1.1v6c0,0.7,0.3,0.9,0.4,0.9
	c0.4,0,0.7-0.2,1.4-1c2.2-2.4,3.7-6.3,3.7-6.3c0.2-0.4,0.5-0.9,1.3-0.9h3.1c0.9,0,1.1,0.4,0.9,1.1c-0.4,1.8-4.2,7-4.2,7
	c-0.3,0.5-0.4,0.8,0,1.3c0.3,0.4,1.4,1.3,2.1,2.2c1.3,1.4,2.3,2.7,2.6,3.6C35.4,29.4,35,29.8,34.1,29.8z"/>
</svg>
