<svg width="181" height="180" viewBox="0 0 181 180" fill="none" xmlns="http://www.w3.org/2000/svg">
<path d="M0 88.67C0 46.8705 0 25.9708 12.9854 12.9854C25.9708 0 46.8705 0 88.6699 0H91.3301C133.129 0 154.029 0 167.015 12.9854C180 25.9708 180 46.8705 180 88.6699V80.0801C180 97.5401 180 133.043 167.015 146.029C154.029 159.014 133.129 159.014 91.3301 159.014H88.6699C46.8705 159.014 25.9708 159.014 12.9854 146.029C0 133.043 0 97.5401 0 80.0801V88.67Z" fill="#0077FF"/>
<path d="M89.9986 45.1134C102.677 45.1134 113.007 55.4264 113.007 68.122C113.007 80.8003 102.694 91.1307 89.9986 91.1307C77.303 91.1307 66.9899 80.8177 66.9899 68.122C67.0073 55.4264 77.3203 45.1134 89.9986 45.1134ZM89.9986 26.7654C67.1464 26.7654 48.6421 45.2872 48.6421 68.122C48.6421 90.9568 67.1638 109.478 89.9986 109.478C112.833 109.478 131.355 90.9568 131.355 68.122C131.355 45.2872 112.851 26.7654 89.9986 26.7654Z" fill="white"/>
<path d="M167.376 167.374C180.002 154.748 180.002 134.418 180.002 93.7566C180.002 79.6001 168.524 68.1393 154.385 68.1393H25.6369C11.4804 68.1393 0.0195313 79.6175 0.0195313 93.7566C0.0195313 134.418 0.0195219 154.748 12.6456 167.374C25.2717 180 45.6022 180 86.263 180H93.7587C134.42 180 154.75 180 167.376 167.374Z" fill="#FF6661"/>
<path d="M179.701 124.056C179.9 118.4 179.966 112.155 179.989 105.075C151.242 112.536 121.08 116.522 90.0013 116.522C58.923 116.522 28.7781 112.537 0.0302734 105.076C0.0708697 112.148 0.102609 118.434 0.318787 124.038C28.9797 131.046 59.1665 134.87 89.9839 134.87C120.836 134.87 151.023 131.065 179.701 124.056Z" fill="white"/>
<path d="M77.0503 132.244H102.981V144.853C102.981 152.018 97.172 157.809 90.0242 157.809C82.859 157.809 77.0677 152.001 77.0677 144.853V132.244H77.0503Z" fill="white"/>
</svg>
