<svg width="80" height="80" viewBox="0 0 80 80" fill="none" xmlns="http://www.w3.org/2000/svg">
<path d="M38.368 80H41.696C59.776 80 68.832 80 74.432 74.4C80 68.768 80 59.712 80 41.696V38.304C80 20.256 80 11.232 74.432 5.6C68.832 0 59.776 0 41.696 0H38.368C20.288 0 11.232 0 5.6 5.6C-0.0319958 11.2 4.03994e-06 20.288 4.03994e-06 38.304V41.696C4.03994e-06 59.744 4.27246e-06 68.768 5.6 74.4C11.2 80.032 20.288 80 38.368 80Z" fill="white"/>
<path d="M42.912 57.664C24.864 57.664 13.92 45.152 13.504 24.352H22.656C22.944 39.616 29.888 46.112 35.232 47.424V24.352H44V37.536C49.152 36.96 54.528 30.976 56.32 24.352H64.928C63.552 32.48 57.696 38.496 53.568 40.96C57.696 42.944 64.384 48.192 66.944 57.664H57.472C55.488 51.328 50.56 46.432 44 45.76V57.664H42.912Z" fill="#0077FF"/>
</svg>
